<?xml version="1.0" encoding="UTF-8"?>
<svg version="1.1" xmlns="http://www.w3.org/2000/svg" width="500" height="500">
<path d="M0 0 C1.41925781 -0.02900391 1.41925781 -0.02900391 2.8671875 -0.05859375 C10.59401431 1.11803335 16.96666531 5.36212267 23.1875 9.875 C23.91573975 10.39578125 24.64397949 10.9165625 25.39428711 11.453125 C31.15880847 15.62423684 36.69153256 20.04732267 42.17407227 24.57983398 C46.72841369 28.33807541 51.3777622 31.92675744 56.125 35.4375 C92.21725245 62.18781 92.21725245 62.18781 94.66571045 74.05912781 C95.21293304 78.0843045 95.28037172 81.99721026 95.28613281 86.05395508 C95.29109772 86.89868881 95.29606262 87.74342255 95.30117798 88.61375427 C95.31572484 91.39485503 95.3225888 94.17589877 95.328125 96.95703125 C95.33388224 98.89987691 95.3396399 100.84272258 95.34539795 102.78556824 C95.35588642 106.8548509 95.36174329 110.92411393 95.36523438 114.9934082 C95.37071703 120.19167521 95.39474939 125.38968003 95.42320633 130.58786488 C95.44188595 134.60032394 95.44704112 138.61272048 95.44857025 142.62521935 C95.45158487 144.5408541 95.45957287 146.45648808 95.47275543 148.37207985 C95.489929 151.05920672 95.48790839 153.74570092 95.48144531 156.43286133 C95.4906601 157.21394257 95.49987488 157.9950238 95.5093689 158.79977417 C95.44905661 166.85866322 93.43476268 173.89044262 87.875 179.8671875 C81.38422632 185.69149782 75.36841471 187.58221586 66.76025391 187.98730469 C65.88458582 188.02927349 65.00891773 188.07124229 64.10671425 188.11448288 C52.07164928 188.63384213 40.02756984 188.62103411 27.98337126 188.63768864 C25.9362141 188.6406609 23.88906202 188.64477172 21.8419075 188.64919281 C15.40375568 188.6627666 8.96561602 188.67249054 2.52745092 188.6763947 C-4.84825438 188.68089645 -12.22377634 188.69858416 -19.59942591 188.7273953 C-25.34941081 188.74906384 -31.09934415 188.75910119 -36.84936941 188.76043582 C-40.26442525 188.76147712 -43.67930629 188.7672434 -47.09431839 188.78525543 C-50.89326204 188.80235935 -54.69175586 188.80042667 -58.49072266 188.79394531 C-60.15695175 188.80776749 -60.15695175 188.80776749 -61.85684204 188.8218689 C-71.01777837 188.77304847 -79.40822845 187.67230021 -86.3125 181.1875 C-87.11558594 180.46046875 -87.91867188 179.7334375 -88.74609375 178.984375 C-93.74626797 173.0025152 -94.32033065 167.40681891 -94.29492188 159.8972168 C-94.30339142 158.96616119 -94.31186096 158.03510559 -94.32058716 157.07583618 C-94.34389353 154.0126562 -94.3449807 150.94998052 -94.34375 147.88671875 C-94.35085616 145.74591371 -94.35855583 143.60511057 -94.36682129 141.46430969 C-94.38025209 136.98144231 -94.38184146 132.49875099 -94.37597656 128.01586914 C-94.3700865 122.28951391 -94.40065056 116.56400826 -94.44109344 110.83781719 C-94.46702743 106.4169515 -94.46984258 101.99628871 -94.46620178 97.57535744 C-94.46788815 95.46516602 -94.47748384 93.35496474 -94.49534607 91.24484825 C-94.66016943 69.36447918 -94.66016943 69.36447918 -86.796875 59.94921875 C-86.08015625 59.34722656 -85.3634375 58.74523437 -84.625 58.125 C-83.75359375 57.39023438 -82.8821875 56.65546875 -81.984375 55.8984375 C-76.85143332 51.8359334 -71.66856277 47.8440828 -66.4453125 43.8984375 C-61.85114853 40.42768557 -57.29474882 36.9101298 -52.75 33.375 C-51.62198975 32.49908203 -51.62198975 32.49908203 -50.47119141 31.60546875 C-46.30747823 28.36331447 -42.18495688 25.07731341 -38.09228516 21.74609375 C-32.33273473 17.06884421 -26.46959008 12.60896505 -20.375 8.375 C-19.72837402 7.92165283 -19.08174805 7.46830566 -18.41552734 7.0012207 C-12.62391017 3.04734264 -7.2149067 0.0097763 0 0 Z M-0.875 26.4375 C-1.82117188 27.22511719 -2.76734375 28.01273438 -3.7421875 28.82421875 C-13.22189776 36.65301594 -22.98969984 43.94115407 -32.99267578 51.08349609 C-40.27346097 56.32075091 -47.17322472 62.04701672 -53.92007446 67.95248413 C-55.875 69.4375 -55.875 69.4375 -58.79745483 71.02139282 C-64.87215325 74.56288713 -64.87215325 74.56288713 -68.55288506 80.32857895 C-69.59505283 85.91148921 -69.27695235 91.57103697 -69.08203125 97.21875 C-69.06216014 99.04190292 -69.04748683 100.8651192 -69.0377655 102.68835449 C-68.99781355 107.46401504 -68.88497412 112.23526849 -68.75726318 117.00927734 C-68.64108194 121.88584004 -68.59948493 126.76302541 -68.54882812 131.640625 C-68.46167477 138.7410583 -68.35447852 145.84060609 -68.17895508 152.93945312 C-68.16369781 153.688479 -68.14844055 154.43750488 -68.13272095 155.20922852 C-68.33110598 158.61321366 -68.33110598 158.61321366 -66.875 161.4375 C-64.4993148 161.5258967 -62.15291326 161.55280305 -59.77734375 161.53515625 C-59.06848526 161.5337413 -58.35962677 161.53232635 -57.62928772 161.53086853 C-55.35698288 161.52525443 -53.08477525 161.51269963 -50.8125 161.5 C-49.27539204 161.49498681 -47.73828255 161.49042359 -46.20117188 161.48632812 C-42.42574358 161.47528042 -38.65038829 161.45800641 -34.875 161.4375 C-35.27041992 160.73262451 -35.66583984 160.02774902 -36.07324219 159.30151367 C-51.03508479 132.31398726 -49.875 112.32169834 -49.875 79.4375 C-0.375 79.9325 -0.375 79.9325 50.125 80.4375 C50.125 133.84987113 50.125 133.84987113 38.359375 156.046875 C37.02499759 158.48039917 37.02499759 158.48039917 36.125 161.4375 C46.685 161.4375 57.245 161.4375 68.125 161.4375 C68.3740421 150.77118339 68.57561059 140.10681299 68.69493389 129.438241 C68.75221958 124.48368449 68.82983838 119.5312284 68.95483398 114.57788086 C69.0748268 109.79254658 69.14021953 105.00922484 69.16864967 100.22250175 C69.1888936 98.40145625 69.22843088 96.58051464 69.28803062 94.76033211 C69.8602645 84.42138601 69.8602645 84.42138601 65.72831726 75.35740662 C62.96188408 73.07153434 60.22625462 71.23144323 57.125 69.4375 C55.92007757 68.53013469 54.72806729 67.604962 53.55859375 66.65234375 C52.56988281 65.90082031 51.58117187 65.14929688 50.5625 64.375 C46.72515029 61.44979325 42.92847626 58.48547574 39.1875 55.4375 C34.84033785 51.93036919 30.31224785 48.7178718 25.73876953 45.51757812 C20.11234115 41.53022558 14.80477721 37.18171891 9.54248047 32.7277832 C6.20633508 29.944836 3.35302102 27.73593256 -0.875 26.4375 Z M-38.875 97.4375 C-38.875 100.7375 -38.875 104.0375 -38.875 107.4375 C-34.87245544 107.52931134 -34.87245544 107.52931134 -30.875 107.4375 C-29.64232652 106.42913938 -29.64232652 106.42913938 -29.77734375 104.37109375 C-29.78894531 103.54738281 -29.80054688 102.72367187 -29.8125 101.875 C-29.833125 100.410625 -29.85375 98.94625 -29.875 97.4375 C-32.845 97.4375 -35.815 97.4375 -38.875 97.4375 Z M-18.875 97.4375 C-18.895625 98.901875 -18.91625 100.36625 -18.9375 101.875 C-18.94910156 102.69871094 -18.96070313 103.52242188 -18.97265625 104.37109375 C-19.10767348 106.42913938 -19.10767348 106.42913938 -17.875 107.4375 C-15.20441149 107.57865161 -12.55067762 107.47997107 -9.875 107.4375 C-9.875 104.1375 -9.875 100.8375 -9.875 97.4375 C-12.845 97.4375 -15.815 97.4375 -18.875 97.4375 Z M10.125 98.4375 C10.104375 99.736875 10.08375 101.03625 10.0625 102.375 C10.05089844 103.10589844 10.03929687 103.83679688 10.02734375 104.58984375 C9.91938816 106.45482141 9.91938816 106.45482141 11.125 107.4375 C14.625 107.60416667 14.625 107.60416667 18.125 107.4375 C19.33061184 106.45482141 19.33061184 106.45482141 19.22265625 104.58984375 C19.21105469 103.85894531 19.19945312 103.12804687 19.1875 102.375 C19.166875 101.075625 19.14625 99.77625 19.125 98.4375 C16.155 98.4375 13.185 98.4375 10.125 98.4375 Z M30.125 99.4375 C29.95833333 102.9375 29.95833333 102.9375 30.125 106.4375 C31.10767859 107.64311184 31.10767859 107.64311184 32.97265625 107.53515625 C35.0234375 107.50260417 37.07421875 107.47005208 39.125 107.4375 C39.125 104.4675 39.125 101.4975 39.125 98.4375 C34.32529258 97.90916284 34.32529258 97.90916284 30.125 99.4375 Z M-38.875 119.4375 C-38.875 122.4075 -38.875 125.3775 -38.875 128.4375 C-35.905 128.4375 -32.935 128.4375 -29.875 128.4375 C-29.875 125.4675 -29.875 122.4975 -29.875 119.4375 C-32.845 119.4375 -35.815 119.4375 -38.875 119.4375 Z M-18.875 119.4375 C-18.875 122.4075 -18.875 125.3775 -18.875 128.4375 C-15.905 128.4375 -12.935 128.4375 -9.875 128.4375 C-9.875 125.4675 -9.875 122.4975 -9.875 119.4375 C-12.845 119.4375 -15.815 119.4375 -18.875 119.4375 Z M10.125 119.4375 C10.125 122.4075 10.125 125.3775 10.125 128.4375 C13.095 128.4375 16.065 128.4375 19.125 128.4375 C19.125 125.4675 19.125 122.4975 19.125 119.4375 C16.155 119.4375 13.185 119.4375 10.125 119.4375 Z M30.125 119.4375 C30.104375 120.736875 30.08375 122.03625 30.0625 123.375 C30.05089844 124.10589844 30.03929687 124.83679688 30.02734375 125.58984375 C29.91938816 127.45482141 29.91938816 127.45482141 31.125 128.4375 C33.79558851 128.57865161 36.44932238 128.47997107 39.125 128.4375 C39.455 125.4675 39.785 122.4975 40.125 119.4375 C36.825 119.4375 33.525 119.4375 30.125 119.4375 Z " fill="#213D52" transform="translate(249.875,155.5625)"/>
<path d="M0 0 C0.94617188 -0.01933594 1.89234375 -0.03867188 2.8671875 -0.05859375 C10.59401431 1.11803335 16.96666531 5.36212267 23.1875 9.875 C23.91573975 10.39578125 24.64397949 10.9165625 25.39428711 11.453125 C31.15880847 15.62423684 36.69153256 20.04732267 42.17407227 24.57983398 C46.72841369 28.33807541 51.3777622 31.92675744 56.125 35.4375 C92.21725245 62.18781 92.21725245 62.18781 94.66571045 74.05912781 C95.21293304 78.0843045 95.28037172 81.99721026 95.28613281 86.05395508 C95.29109772 86.89868881 95.29606262 87.74342255 95.30117798 88.61375427 C95.31572484 91.39485503 95.3225888 94.17589877 95.328125 96.95703125 C95.33388224 98.89987691 95.3396399 100.84272258 95.34539795 102.78556824 C95.35588642 106.8548509 95.36174329 110.92411393 95.36523438 114.9934082 C95.37071703 120.19167521 95.39474939 125.38968003 95.42320633 130.58786488 C95.44188595 134.60032394 95.44704112 138.61272048 95.44857025 142.62521935 C95.45158487 144.5408541 95.45957287 146.45648808 95.47275543 148.37207985 C95.489929 151.05920672 95.48790839 153.74570092 95.48144531 156.43286133 C95.4906601 157.21394257 95.49987488 157.9950238 95.5093689 158.79977417 C95.44905661 166.85866322 93.43476268 173.89044262 87.875 179.8671875 C82.75758024 184.45915791 77.45524364 187.56068552 70.4921875 187.5703125 C69.15994141 187.57224609 69.15994141 187.57224609 67.80078125 187.57421875 C66.87652344 187.57035156 65.95226562 187.56648437 65 187.5625 C63.60201172 187.56830078 63.60201172 187.56830078 62.17578125 187.57421875 C61.29019531 187.57292969 60.40460938 187.57164062 59.4921875 187.5703125 C58.67862793 187.56918457 57.86506836 187.56805664 57.02685547 187.56689453 C55.125 187.4375 55.125 187.4375 54.125 186.4375 C54.03786169 184.72977642 54.01799993 183.01851351 54.02734375 181.30859375 C54.03217773 179.75688477 54.03217773 179.75688477 54.03710938 178.17382812 C54.04967773 176.5409082 54.04967773 176.5409082 54.0625 174.875 C54.06701172 173.78251953 54.07152344 172.69003906 54.07617188 171.56445312 C54.0880016 168.85544568 54.10593769 166.1464662 54.125 163.4375 C59.735 163.1075 65.345 162.7775 71.125 162.4375 C70.795 134.7175 70.465 106.9975 70.125 78.4375 C69.795 105.8275 69.465 133.2175 69.125 161.4375 C68.795 161.4375 68.465 161.4375 68.125 161.4375 C68.14356049 160.42209641 68.16212097 159.40669281 68.1812439 158.36051941 C68.34759104 148.75420233 68.43922827 139.14963325 68.45921898 129.54186535 C68.47185678 124.60284398 68.5100749 119.66687749 68.60839844 114.72875977 C68.70247075 109.95551739 68.72719714 105.18632608 68.70546341 100.41225624 C68.70908125 98.59855076 68.73697452 96.78471378 68.79041672 94.97179222 C69.29796213 85.29938367 69.29796213 85.29938367 65.76053619 76.61645889 C62.48248347 73.35013994 58.80073779 70.86675958 54.84091568 68.50205421 C52.32436605 66.94078664 50.08538313 65.07965466 47.8125 63.1875 C40.61267541 57.4229727 33.34082768 51.86743886 25.7902832 46.56884766 C20.15159176 42.55880921 14.82279885 38.19691165 9.54272461 33.72802734 C6.20651522 30.94495647 3.35314249 28.73596986 -0.875 27.4375 C-1.82117188 28.22511719 -2.76734375 29.01273438 -3.7421875 29.82421875 C-11.22892089 36.00812077 -18.82155429 41.9912216 -26.6875 47.6875 C-27.45755371 48.24783936 -28.22760742 48.80817871 -29.02099609 49.38549805 C-30.1030835 50.16147339 -30.1030835 50.16147339 -31.20703125 50.953125 C-31.84358643 51.40977539 -32.4801416 51.86642578 -33.13598633 52.33691406 C-35.83941873 54.04786075 -37.39512376 54.53922815 -40.546875 53.87109375 C-46.83173425 51.83728777 -52.7084437 49.83110038 -56.875 44.4375 C-57.55078125 42.25 -57.55078125 42.25 -57.875 40.4375 C-59.525 41.0975 -61.175 41.7575 -62.875 42.4375 C-59.31745283 38.74108947 -55.57013272 35.50178564 -51.5 32.375 C-50.24935725 31.40577673 -48.9993794 30.43569501 -47.75 29.46484375 C-47.10933594 28.96710449 -46.46867187 28.46936523 -45.80859375 27.95654297 C-43.9179329 26.47122835 -42.0494876 24.96245955 -40.1875 23.44140625 C-33.74194995 18.18098917 -27.21047616 13.12207969 -20.375 8.375 C-19.72869629 7.92189453 -19.08239258 7.46878906 -18.41650391 7.00195312 C-12.62464898 3.04771081 -7.21532937 0.00977687 0 0 Z " fill="#2A5E78" transform="translate(249.875,155.5625)"/>
<path d="M0 0 C13.0211064 -0.023121 26.04220795 -0.04091384 39.06333065 -0.05181217 C45.10887817 -0.05704153 51.1544117 -0.06414014 57.19995117 -0.07543945 C63.02894288 -0.08626645 68.85792109 -0.09227643 74.68692207 -0.09487724 C76.9161761 -0.09673183 79.14542935 -0.10035308 81.37467766 -0.10573006 C84.48539734 -0.11293799 87.59606049 -0.11399105 90.70678711 -0.11352539 C91.63826569 -0.11712067 92.56974426 -0.12071594 93.52944946 -0.12442017 C99.88594784 -0.11405216 99.88594784 -0.11405216 101 1 C101.11378726 3.57541694 101.16419759 6.12287093 101.16796875 8.69921875 C101.17296135 9.87917168 101.17296135 9.87917168 101.17805481 11.08296204 C101.18313449 12.76013606 101.18546282 14.43732025 101.18530273 16.11450195 C101.18745248 18.6318549 101.2054921 21.14874255 101.22460938 23.66601562 C101.30023065 44.63311771 97.88899006 64.16651491 86 82 C96.56 82 107.12 82 118 82 C118 82.33 118 82.66 118 83 C116.98687744 82.94763184 115.97375488 82.89526367 114.92993164 82.84130859 C111.13446047 82.6589202 107.33936581 82.54503517 103.54077148 82.45068359 C101.90403933 82.40069965 100.26774686 82.33267918 98.63256836 82.24560547 C88.81354712 81.516959 88.81354712 81.516959 80.03198242 85.12109375 C77.79057883 87.64003537 75.92898776 90.24020024 74 93 C68.13600028 98.51247143 58.4551781 107 50 107 C50 72.02 50 37.04 50 1 C33.5 1 17 1 0 1 C0 0.67 0 0.34 0 0 Z M60 19 C59.979375 20.299375 59.95875 21.59875 59.9375 22.9375 C59.92589844 23.66839844 59.91429687 24.39929688 59.90234375 25.15234375 C59.79438816 27.01732141 59.79438816 27.01732141 61 28 C64.5 28.16666667 64.5 28.16666667 68 28 C69.20561184 27.01732141 69.20561184 27.01732141 69.09765625 25.15234375 C69.08605469 24.42144531 69.07445312 23.69054687 69.0625 22.9375 C69.041875 21.638125 69.02125 20.33875 69 19 C66.03 19 63.06 19 60 19 Z M80 20 C79.83333333 23.5 79.83333333 23.5 80 27 C80.98267859 28.20561184 80.98267859 28.20561184 82.84765625 28.09765625 C84.8984375 28.06510417 86.94921875 28.03255208 89 28 C89 25.03 89 22.06 89 19 C84.20029258 18.47166284 84.20029258 18.47166284 80 20 Z M60 40 C60 42.97 60 45.94 60 49 C62.97 49 65.94 49 69 49 C69 46.03 69 43.06 69 40 C66.03 40 63.06 40 60 40 Z M80 40 C79.979375 41.299375 79.95875 42.59875 79.9375 43.9375 C79.92589844 44.66839844 79.91429687 45.39929688 79.90234375 46.15234375 C79.79438816 48.01732141 79.79438816 48.01732141 81 49 C83.67058851 49.14115161 86.32432238 49.04247107 89 49 C89.33 46.03 89.66 43.06 90 40 C86.7 40 83.4 40 80 40 Z " fill="#6E8E6F" transform="translate(200,235)"/>
<path d="M0 0 C4.02737756 2.05043493 7.60449028 4.56806702 11.1875 7.3125 C10.8575 8.3025 10.5275 9.2925 10.1875 10.3125 C6.5575 10.9725 2.9275 11.6325 -0.8125 12.3125 C-0.8125 12.9725 -0.8125 13.6325 -0.8125 14.3125 C-1.451875 14.415625 -2.09125 14.51875 -2.75 14.625 C-3.430625 14.851875 -4.11125 15.07875 -4.8125 15.3125 C-5.3075 16.7975 -5.3075 16.7975 -5.8125 18.3125 C-6.4725 18.6425 -7.1325 18.9725 -7.8125 19.3125 C-8.64054069 21.79662207 -8.8125 23.66470307 -8.8125 26.3125 C-10.1325 26.3125 -11.4525 26.3125 -12.8125 26.3125 C-15.13945766 27.97247622 -17.26946628 29.65168554 -19.4375 31.5 C-25.3367763 36.37585694 -31.35826311 41.01790658 -37.5625 45.5 C-38.72386475 46.34630981 -38.72386475 46.34630981 -39.90869141 47.2097168 C-40.63491699 47.73218994 -41.36114258 48.25466309 -42.109375 48.79296875 C-42.75229492 49.25598389 -43.39521484 49.71899902 -44.05761719 50.19604492 C-46.7653847 51.9187245 -48.32203407 52.41647304 -51.484375 51.74609375 C-57.76923425 49.71228777 -63.6459437 47.70610038 -67.8125 42.3125 C-68.48828125 40.125 -68.48828125 40.125 -68.8125 38.3125 C-70.4625 38.9725 -72.1125 39.6325 -73.8125 40.3125 C-70.25495283 36.61608947 -66.50763272 33.37678564 -62.4375 30.25 C-61.18685725 29.28077673 -59.9368794 28.31069501 -58.6875 27.33984375 C-58.04683594 26.84210449 -57.40617187 26.34436523 -56.74609375 25.83154297 C-54.8554329 24.34622835 -52.9869876 22.83745955 -51.125 21.31640625 C-44.67944995 16.05598917 -38.14797616 10.99707969 -31.3125 6.25 C-30.66619629 5.79689453 -30.01989258 5.34378906 -29.35400391 4.87695312 C-20.26909576 -1.32553791 -10.71387561 -4.50532205 0 0 Z " fill="#2A5D76" transform="translate(260.8125,157.6875)"/>
<path d="M0 0 C3.87879635 0.60861676 6.2313638 2.44731246 9.3125 4.8125 C10.35792969 5.61300781 11.40335937 6.41351563 12.48046875 7.23828125 C17.05778756 10.8112385 21.58896334 14.44325388 26.09887695 18.10083008 C29.37629377 20.80889566 29.37629377 20.80889566 33 23 C34.2587561 26.34826209 34.03477855 29.54501947 33.87890625 33.078125 C33.83056641 34.23828125 33.78222656 35.3984375 33.73242188 36.59375 C33.67634766 37.8003125 33.62027344 39.006875 33.5625 40.25 C33.51029297 41.47203125 33.45808594 42.6940625 33.40429688 43.953125 C33.27470786 46.96901481 33.13974424 49.98456646 33 53 C25.91495969 53 22.4066836 49.72569405 17.4609375 45.125 C15.05290357 43.04568181 12.66101099 41.44824234 9.9375 39.8125 C2.70582488 35.38973824 -3.69433673 29.93478236 -10.18603516 24.51074219 C-11.37692769 23.51891944 -12.57436642 22.53489406 -13.77880859 21.55957031 C-17.89316642 18.21366717 -17.89316642 18.21366717 -19 16 C-19.99 15.34 -20.98 14.68 -22 14 C-21.01 14 -20.02 14 -19 14 C-18.9071875 13.13375 -18.9071875 13.13375 -18.8125 12.25 C-17.66615826 9.07551517 -15.74043158 7.87151425 -13 6 C-12.34 6 -11.68 6 -11 6 C-11 5.34 -11 4.68 -11 4 C-7.17010894 2.19769832 -4.21878192 1.80377759 0 2 C0 1.34 0 0.68 0 0 Z " fill="#213C52" transform="translate(271,166)"/>
<path d="M0 0 C1.485 0.99 1.485 0.99 3 2 C3.2487793 4.11279297 3.2487793 4.11279297 3.07421875 6.7421875 C3.01935303 7.71736328 2.9644873 8.69253906 2.90795898 9.69726562 C2.83520752 10.74591797 2.76245605 11.79457031 2.6875 12.875 C2.56417029 15.04928137 2.44444069 17.22376963 2.328125 19.3984375 C2.26818359 20.49768555 2.20824219 21.59693359 2.14648438 22.72949219 C1.92590841 27.65421825 1.91084571 32.57121526 1.9375 37.5 C1.94160889 38.35964355 1.94571777 39.21928711 1.94995117 40.10498047 C1.9623316 42.0700188 1.98043715 44.03502005 2 46 C-1.18709302 40.47570544 -1.15131348 34.52912085 -1.1328125 28.30078125 C-1.13376923 27.58391647 -1.13472595 26.8670517 -1.13571167 26.12846375 C-1.13638843 24.62332063 -1.13456952 23.11817452 -1.13037109 21.61303711 C-1.12499187 19.30901582 -1.13034526 17.00518736 -1.13671875 14.70117188 C-1.13605834 13.23437457 -1.13477795 11.76757739 -1.1328125 10.30078125 C-1.13483673 9.61325272 -1.13686096 8.92572418 -1.13894653 8.21736145 C-1.1240918 5.19617938 -0.96379711 2.89139133 0 0 Z " fill="#25334A" transform="translate(200,236)"/>
<path d="M0 0 C2.31 0.66 4.62 1.32 7 2 C7 2.66 7 3.32 7 4 C6.01 4.495 6.01 4.495 5 5 C6.48984408 8.84312054 8.60384774 10.38393441 12 12.625 C16.86086957 15.86086957 16.86086957 15.86086957 19 18 C19 18.99 19 19.98 19 21 C14.53349844 18.89429279 10.80694461 16.02025082 6.875 13.0625 C6.14667969 12.52431641 5.41835938 11.98613281 4.66796875 11.43164062 C3.97058594 10.90892578 3.27320313 10.38621094 2.5546875 9.84765625 C1.92030762 9.37336182 1.28592773 8.89906738 0.63232422 8.41040039 C-1 7 -1 7 -3 4 C-0.525 4.99 -0.525 4.99 2 6 C1.01 4.68 0.02 3.36 -1 2 C-0.67 1.34 -0.34 0.68 0 0 Z " fill="#405567" transform="translate(262,184)"/>
<path d="M0 0 C0.886875 -0.02578125 1.77375 -0.0515625 2.6875 -0.078125 C3.450625 0.03015625 4.21375 0.1384375 5 0.25 C7.11295256 3.41942884 7.25250929 4.24629953 7.1875 7.875 C7.17783203 9.06996094 7.17783203 9.06996094 7.16796875 10.2890625 C7 12.25 7 12.25 6 13.25 C4.16884117 13.34851171 2.33380067 13.37972629 0.5 13.375 C-0.5003125 13.37757813 -1.500625 13.38015625 -2.53125 13.3828125 C-5 13.25 -5 13.25 -6 12.25 C-6.23363881 10.40108054 -6.41303635 8.54511969 -6.5625 6.6875 C-6.64628906 5.67558594 -6.73007813 4.66367187 -6.81640625 3.62109375 C-6.87699219 2.83863281 -6.93757812 2.05617188 -7 1.25 C-4.53183586 0.01591793 -2.75338799 0.04802421 0 0 Z M-5 3.25 C-5 6.22 -5 9.19 -5 12.25 C-2.03 12.25 0.94 12.25 4 12.25 C4 9.28 4 6.31 4 3.25 C1.03 3.25 -1.94 3.25 -5 3.25 Z " fill="#3A4E5D" transform="translate(216,271.75)"/>
<path d="M0 0 C0.89847656 -0.00257813 1.79695312 -0.00515625 2.72265625 -0.0078125 C4.9375 0.125 4.9375 0.125 5.9375 1.125 C6.17113881 2.97391946 6.35053635 4.82988031 6.5 6.6875 C6.58378906 7.69941406 6.66757813 8.71132813 6.75390625 9.75390625 C6.81449219 10.53636719 6.87507812 11.31882812 6.9375 12.125 C5.9475 12.62 5.9475 12.62 4.9375 13.125 C4.9375 9.495 4.9375 5.865 4.9375 2.125 C1.3075 2.125 -2.3225 2.125 -6.0625 2.125 C-5.7325 5.425 -5.4025 8.725 -5.0625 12.125 C-2.0925 12.455 0.8775 12.785 3.9375 13.125 C3.9375 13.455 3.9375 13.785 3.9375 14.125 C2.31286158 14.17895478 0.68771459 14.21777195 -0.9375 14.25 C-1.84242188 14.27320313 -2.74734375 14.29640625 -3.6796875 14.3203125 C-6.0625 14.125 -6.0625 14.125 -8.0625 12.125 C-9.39928756 6.10945596 -9.39928756 6.10945596 -8.25 2.75 C-5.98915757 -0.34378437 -3.59303996 -0.01033968 0 0 Z " fill="#152B3D" transform="translate(236.0625,271.875)"/>
<path d="M0 0 C2.4375 1.5 2.4375 1.5 4 4 C4.32111824 6.75845833 4.18630402 9.20543968 4 12 C3.34 12 2.68 12 2 12 C1.67 9.36 1.34 6.72 1 4 C-1.97 3.67 -4.94 3.34 -8 3 C-8 6.3 -8 9.6 -8 13 C-8.66 12.67 -9.32 12.34 -10 12 C-10 8.37 -10 4.74 -10 1 C-6.40735548 -0.19754817 -3.77282526 -0.33094958 0 0 Z " fill="#1D3341" transform="translate(219,250)"/>
<path d="M0 0 C2 1.1875 2 1.1875 4 3 C4.25 5.6875 4.25 5.6875 4 8 C0.21786865 9.24810335 -3.46799294 9.03501717 -7.390625 8.87890625 C-8.09523865 8.85529526 -8.79985229 8.83168427 -9.52581787 8.80735779 C-11.7674328 8.73103023 -14.00867496 8.64687421 -16.25 8.5625 C-17.7734195 8.5092483 -19.29685698 8.45650812 -20.8203125 8.40429688 C-24.54710155 8.27545752 -28.27359667 8.13959768 -32 8 C-32 7.67 -32 7.34 -32 7 C-20.78 7 -9.56 7 2 7 C1.01 5.02 0.02 3.04 -1 1 C-0.67 0.67 -0.34 0.34 0 0 Z " fill="#12273A" transform="translate(214,311)"/>
<path d="M0 0 C0 0.66 0 1.32 0 2 C-0.80824219 2.04898438 -1.61648437 2.09796875 -2.44921875 2.1484375 C-3.51785156 2.22320312 -4.58648437 2.29796875 -5.6875 2.375 C-7.27111328 2.47941406 -7.27111328 2.47941406 -8.88671875 2.5859375 C-13.5681889 3.20856716 -16.88457594 4.39266687 -20 8 C-20.33 6.68 -20.66 5.36 -21 4 C-13.94912244 0.01162482 -8.01426231 -0.48817841 0 0 Z " fill="#2F566E" transform="translate(256,156)"/>
<path d="M0 0 C0 6.6 0 13.2 0 20 C-3.1521649 13.6956702 -3.13802107 7.90105355 -3 1 C-1 0 -1 0 0 0 Z " fill="#1C2E42" transform="translate(202,262)"/>
<path d="M0 0 C6.15234375 -0.09765625 6.15234375 -0.09765625 8 0 C9 1 9 1 9.1328125 3.46875 C9.13023437 4.4690625 9.12765625 5.469375 9.125 6.5 C9.12757813 7.5003125 9.13015625 8.500625 9.1328125 9.53125 C9 12 9 12 8 13 C6.31391034 13.07205511 4.62499341 13.08386068 2.9375 13.0625 C2.01839844 13.05347656 1.09929687 13.04445313 0.15234375 13.03515625 C-0.55792969 13.02355469 -1.26820313 13.01195312 -2 13 C-2 12.67 -2 12.34 -2 12 C0.97 12 3.94 12 7 12 C6.67 8.7 6.34 5.4 6 2 C3.03 1.505 3.03 1.505 0 1 C0 0.67 0 0.34 0 0 Z " fill="#5E765E" transform="translate(282,252)"/>
<path d="M0 0 C1.65 0 3.3 0 5 0 C1.19588166 3.91939465 -2.81576108 7.49102731 -7 11 C-7.66 10.67 -8.32 10.34 -9 10 C-7.49111169 5.77511272 -4.67376036 4.34495342 -1 2 C-0.67 1.34 -0.34 0.68 0 0 Z " fill="#556672" transform="translate(192,222)"/>
<path d="M0 0 C0.33 0 0.66 0 1 0 C1.19406478 1.64507218 1.38007935 3.29109594 1.5625 4.9375 C1.66691406 5.85402344 1.77132812 6.77054687 1.87890625 7.71484375 C1.91886719 8.46894531 1.95882812 9.22304688 2 10 C1 11 1 11 -1.50390625 11.09765625 C-3.01791016 11.08025391 -3.01791016 11.08025391 -4.5625 11.0625 C-5.57441406 11.05347656 -6.58632812 11.04445313 -7.62890625 11.03515625 C-8.41136719 11.02355469 -9.19382813 11.01195312 -10 11 C-10 10.01 -10 9.02 -10 8 C-7.03 8 -4.06 8 -1 8 C-0.67 5.36 -0.34 2.72 0 0 Z " fill="#546874" transform="translate(220,254)"/>
<path d="M0 0 C0.28571429 8.57142857 0.28571429 8.57142857 -2 12 C-2.66 11.67 -3.32 11.34 -4 11 C-3.67 10.67 -3.34 10.34 -3 10 C-2.76924918 8.65252916 -2.58846937 7.29622435 -2.4375 5.9375 C-2.293125 4.638125 -2.14875 3.33875 -2 2 C-4.97 2 -7.94 2 -11 2 C-6.78370866 -0.10814567 -4.60209225 -0.17700355 0 0 Z " fill="#799979" transform="translate(271,252)"/>
<path d="M0 0 C8.44646925 6.15034169 8.44646925 6.15034169 12 10 C10.88625 9.814375 9.7725 9.62875 8.625 9.4375 C5.17431139 8.68319343 5.17431139 8.68319343 3 10 C3.33 8.35 3.66 6.7 4 5 C3.01 5 2.02 5 1 5 C0.67 3.35 0.34 1.7 0 0 Z " fill="#467383" transform="translate(313,197)"/>
<path d="M0 0 C1.2065625 0.0309375 1.2065625 0.0309375 2.4375 0.0625 C1.1175 0.3925 -0.2025 0.7225 -1.5625 1.0625 C-1.44887738 2.5425841 -1.32127092 4.02160074 -1.1875 5.5 C-1.11789062 6.32371094 -1.04828125 7.14742188 -0.9765625 7.99609375 C-0.83992188 8.67800781 -0.70328125 9.35992187 -0.5625 10.0625 C0.0975 10.3925 0.7575 10.7225 1.4375 11.0625 C1.4375 11.7225 1.4375 12.3825 1.4375 13.0625 C-0.2125 12.7325 -1.8625 12.4025 -3.5625 12.0625 C-3.58937279 10.25007948 -3.60883715 8.43754767 -3.625 6.625 C-3.63660156 5.61566406 -3.64820313 4.60632813 -3.66015625 3.56640625 C-3.52706167 0.15386128 -3.42090834 0.08343679 0 0 Z " fill="#6C846C" transform="translate(261.5625,251.9375)"/>
<path d="M0 0 C1 3 1 3 0.125 4.9375 C-0.24625 5.618125 -0.6175 6.29875 -1 7 C-1.36784131 8.3242287 -1.71202981 9.65613912 -2 11 C-2.66 9.35 -3.32 7.7 -4 6 C-5.65 6.66 -7.3 7.32 -9 8 C-6.14723863 5.06799526 -3.34920216 2.35684596 0 0 Z " fill="#45667A" transform="translate(196,190)"/>
<path d="M0 0 C0.33 0.66 0.66 1.32 1 2 C0.34 2 -0.32 2 -1 2 C-0.67 3.32 -0.34 4.64 0 6 C-3.3 6 -6.6 6 -10 6 C-6.68366796 3.51275097 -3.70626844 1.76890085 0 0 Z " fill="#28424B" transform="translate(262,336)"/>
<path d="M0 0 C0.721875 0.268125 1.44375 0.53625 2.1875 0.8125 C1.8575 2.4625 1.5275 4.1125 1.1875 5.8125 C-1.7825 5.4825 -4.7525 5.1525 -7.8125 4.8125 C-3.50480769 -0.23365385 -3.50480769 -0.23365385 0 0 Z " fill="#3E6981" transform="translate(204.8125,185.1875)"/>
<path d="M0 0 C0.66 1.32 1.32 2.64 2 4 C2.66 4.66 3.32 5.32 4 6 C3.625 8.625 3.625 8.625 3 11 C2.34 11 1.68 11 1 11 C0.67 11.66 0.34 12.32 0 13 C0 8.71 0 4.42 0 0 Z " fill="#183043" transform="translate(241,252)"/>
<path d="M0 0 C1.8125 1.3125 1.8125 1.3125 2.8125 4.3125 C2.85204234 6.64549825 2.85651732 8.97958189 2.8125 11.3125 C2.1525 11.3125 1.4925 11.3125 0.8125 11.3125 C0.4825 8.6725 0.1525 6.0325 -0.1875 3.3125 C-2.1675 2.6525 -4.1475 1.9925 -6.1875 1.3125 C-2.78451493 -0.87513326 -2.78451493 -0.87513326 0 0 Z " fill="#172D3B" transform="translate(220.1875,250.6875)"/>
<path d="M0 0 C1.5625 1.125 1.5625 1.125 3 3 C2.6875 6.0625 2.6875 6.0625 2 9 C2 9.66 2 10.32 2 11 C1.34 11 0.68 11 0 11 C0 10.34 0 9.68 0 9 C-0.66 8.67 -1.32 8.34 -2 8 C-1.67 7.34 -1.34 6.68 -1 6 C-0.64080679 4.00448218 -0.30503431 2.00451121 0 0 Z " fill="#3B697E" transform="translate(339,219)"/>
<path d="M0 0 C4.04420651 1.77945087 7.46078487 4.39529673 11 7 C10.01 7.495 10.01 7.495 9 8 C5.48000825 6.50213117 2.39020187 5.05414684 0 2 C0 1.34 0 0.68 0 0 Z " fill="#617882" transform="translate(275,168)"/>
<path d="M0 0 C4.28477792 2.30718811 7.72291137 4.32966073 11 8 C10.01 8.33 9.02 8.66 8 9 C7.34 8.34 6.68 7.68 6 7 C5.29875 6.505 4.5975 6.01 3.875 5.5 C3.25625 5.005 2.6375 4.51 2 4 C2 3.34 2 2.68 2 2 C1.34 2 0.68 2 0 2 C0 1.34 0 0.68 0 0 Z " fill="#556874" transform="translate(293,182)"/>
<path d="M0 0 C0.99 0.33 1.98 0.66 3 1 C2.4375 2.9375 2.4375 2.9375 1 5 C-2.625 5.75 -2.625 5.75 -6 6 C-4 4 -2 2 0 0 Z " fill="#1B314B" transform="translate(182,202)"/>
<path d="M0 0 C1.98 0 3.96 0 6 0 C3.42215154 2.64752004 1.08351902 4.94432065 -2 7 C-2 5.68 -2 4.36 -2 3 C-1.01 2.67 -0.02 2.34 1 2 C0.67 1.34 0.34 0.68 0 0 Z " fill="#62879C" transform="translate(239,185)"/>
<path d="M0 0 C3.0831351 1.19899698 6.06279492 2.47700477 9 4 C9 4.66 9 5.32 9 6 C5.21213403 5.4739075 2.82847776 4.61896089 0 2 C0 1.34 0 0.68 0 0 Z " fill="#2D4253" transform="translate(165,336)"/>
<path d="M0 0 C1.32 0.33 2.64 0.66 4 1 C4 2.32 4 3.64 4 5 C1.03 4.505 1.03 4.505 -2 4 C-1.34 2.68 -0.68 1.36 0 0 Z " fill="#384C62" transform="translate(162,217)"/>
<path d="M0 0 C1.98 0.66 3.96 1.32 6 2 C5.67 2.66 5.34 3.32 5 4 C2.33333333 4 -0.33333333 4 -3 4 C-2.01 2.68 -1.02 1.36 0 0 Z " fill="#5E828D" transform="translate(247,180)"/>
<path d="M0 0 C0.66 0.33 1.32 0.66 2 1 C1.5206753 5.31392226 0.2542015 7.16569547 -3 10 C-3 8.35 -3 6.7 -3 5 C-2.01 5 -1.02 5 0 5 C0 3.35 0 1.7 0 0 Z " fill="#93A58B" transform="translate(289,305)"/>
<path d="M0 0 C6.875 3.75 6.875 3.75 8 6 C7.01 6.33 6.02 6.66 5 7 C5 6.34 5 5.68 5 5 C4.360625 4.731875 3.72125 4.46375 3.0625 4.1875 C1 3 1 3 0 0 Z " fill="#3E6271" transform="translate(264,160)"/>
<path d="M0 0 C0.99 0.33 1.98 0.66 3 1 C1.37660195 2.70884005 -0.29319053 4.37446717 -2 6 C-2.66 6 -3.32 6 -4 6 C-4 4 -4 4 -2 1.875 C-1.34 1.25625 -0.68 0.6375 0 0 Z " fill="#618171" transform="translate(266,330)"/>
<path d="M0 0 C0.99 0.99 1.98 1.98 3 3 C1.68 4.32 0.36 5.64 -1 7 C-1.33 5.35 -1.66 3.7 -2 2 C-1.34 2 -0.68 2 0 2 C0 1.34 0 0.68 0 0 Z " fill="#455A68" transform="translate(203,212)"/>
<path d="M0 0 C2.64 0.66 5.28 1.32 8 2 C8 3.32 8 4.64 8 6 C4.63408134 4.55746343 2.48952921 2.66735273 0 0 Z " fill="#7B8B9B" transform="translate(273,199)"/>
</svg>
