<?xml version="1.0" encoding="UTF-8"?>
<svg version="1.1" xmlns="http://www.w3.org/2000/svg" width="1024" height="1024">
<path d="M0 0 C337.92 0 675.84 0 1024 0 C1024 337.92 1024 675.84 1024 1024 C686.08 1024 348.16 1024 0 1024 C0 686.08 0 348.16 0 0 Z " fill="#030508" transform="translate(0,0)"/>
<path d="M0 0 C337.92 0 675.84 0 1024 0 C1024 337.92 1024 675.84 1024 1024 C686.08 1024 348.16 1024 0 1024 C0 686.08 0 348.16 0 0 Z M406.1875 65.4375 C405.47465851 65.60340637 404.76181702 65.76931274 404.02737427 65.94024658 C330.18696112 83.33654903 259.18325472 120.48345657 203.80859375 172.40234375 C201.65302507 174.39601993 199.47387189 176.32357977 197.25 178.23828125 C192.49475532 182.38349101 188.01990962 186.78856826 183.5625 191.25 C182.72283691 192.08974365 181.88317383 192.9294873 181.01806641 193.79467773 C175.9905273 198.86874092 171.27227429 203.98364773 166.8828125 209.62109375 C164.94297436 212.07205107 162.88015847 214.33832451 160.75 216.625 C154.33339767 223.68771854 148.69581933 231.35509105 143 239 C142.45794922 239.72251953 141.91589844 240.44503906 141.35742188 241.18945312 C125.28617004 262.67580786 111.70785646 285.81544508 100.00195312 309.94287109 C98.97687459 312.04747922 97.93391149 314.14264866 96.890625 316.23828125 C58.04220058 395.24599312 44.71043973 489.12824288 58 576 C58.1954366 577.33335896 58.38993381 578.66685594 58.58349609 580.00048828 C62.67948524 608.00747902 69.4508822 635.17746793 78.625 661.9375 C79.01800293 663.08493683 79.01800293 663.08493683 79.41894531 664.2555542 C83.96938934 677.48217359 89.05749084 690.3301637 95 703 C95.474375 704.02270996 95.94875 705.04541992 96.4375 706.09912109 C111.01701873 737.44603555 128.54311799 766.85488417 150 794 C150.66515625 794.84820313 151.3303125 795.69640625 152.015625 796.5703125 C164.3824782 812.20483016 177.6862615 826.75994291 191.75 840.875 C192.6373584 841.76703125 193.5247168 842.6590625 194.43896484 843.578125 C199.46573326 848.59265825 204.59523245 853.39687519 210 858 C210.96421875 858.845625 211.9284375 859.69125 212.921875 860.5625 C264.36764605 904.90250157 326.49290418 937.40107874 392 955 C393.38348633 955.37705078 393.38348633 955.37705078 394.79492188 955.76171875 C475.56227729 977.60271946 567.30325183 976.76502526 647 950.3046875 C650.284155 949.21458174 653.58151481 948.28603035 656.9375 947.4375 C661.65158218 946.18711845 666.01603247 944.42768057 670.48828125 942.4921875 C673.07981431 941.39100215 675.66895383 940.33772902 678.29296875 939.3203125 C707.99952948 927.78330641 736.42469562 913.61733661 763 896 C764.18070068 895.21906982 764.18070068 895.21906982 765.38525391 894.42236328 C785.48814424 881.05700926 804.17790609 866.26993643 822 850 C822.92167969 849.17113281 823.84335937 848.34226562 824.79296875 847.48828125 C835.4049355 837.88564291 845.77931329 827.96193227 855 817 C855.8971028 815.96498747 856.79568275 814.93125438 857.6953125 813.8984375 C879.95259927 788.28135513 898.51119429 760.63464288 915 731 C915.39251953 730.30293945 915.78503906 729.60587891 916.18945312 728.88769531 C928.48558025 706.97369803 937.90643178 683.74015294 945.96142578 659.98754883 C946.90343951 657.27776463 947.92593581 654.61499767 948.96484375 651.94140625 C951.72437413 644.39173479 953.48268314 636.55777758 955.35449219 628.75170898 C955.99159904 626.09749872 956.63951021 623.44611044 957.2890625 620.79492188 C976.95339329 539.94068688 975.04573147 453.59295693 930 323 C929.3203418 321.52176758 929.3203418 321.52176758 928.62695312 320.01367188 C912.09276675 284.11021915 891.5141181 249.84227781 865.52734375 219.9296875 C863.03670312 217.04254613 860.63817759 214.09713333 858.25 211.125 C855.22823531 207.4096274 852.09829616 203.97704742 848.65625 200.65234375 C846.96233581 198.96242464 845.4225168 197.19940094 843.875 195.375 C836.86500571 187.25733167 829.11173227 179.59321573 820.93359375 172.65625 C818.69663065 170.74014423 816.54196422 168.74487144 814.375 166.75 C808.85750849 161.77327336 803.05547062 157.19865923 797.16748047 152.67285156 C795.49350485 151.3808848 793.82735909 150.0787691 792.16455078 148.77246094 C784.17703752 142.52178614 775.95245206 136.72772319 767.5 131.125 C766.52454727 130.47618866 766.52454727 130.47618866 765.52938843 129.81427002 C755.04216559 122.85138795 744.4125989 116.2633704 733.33691406 110.26757812 C731.08576178 109.04651851 728.8511555 107.7990226 726.6171875 106.546875 C684.85031365 83.48144773 639.11646316 69.16812838 592.37939453 60.62109375 C589.64368984 60.11830277 586.91320109 59.59698541 584.18359375 59.0625 C579.80614432 58.2309656 575.4178624 57.57710815 571 57 C569.45699219 56.79697266 569.45699219 56.79697266 567.8828125 56.58984375 C549.08216339 54.24504369 530.37404896 53.70701102 511.4375 53.6875 C510.35309631 53.68400543 509.26869263 53.68051086 508.15142822 53.6769104 C473.80064201 53.615478 439.64301491 57.64505562 406.1875 65.4375 Z " fill="#FEFEFE" transform="translate(0,0)"/>
<path d="M0 0 C4.23092526 2.83517257 8.38048446 5.78051546 12.5234375 8.7421875 C13.33280762 9.3187207 14.14217773 9.89525391 14.97607422 10.48925781 C18.97747367 13.34351165 22.9719041 16.20750185 26.953125 19.08984375 C27.91581299 19.78605835 27.91581299 19.78605835 28.89794922 20.49633789 C32.41670455 23.19327518 32.41670455 23.19327518 32.9609375 25.9921875 C32.32845418 29.96779696 30.26060511 31.87770977 27.5234375 34.7421875 C24.5234375 36.7421875 24.5234375 36.7421875 21.87109375 36.7421875 C17.16382016 35.33604743 13.83950936 32.69375054 9.9609375 29.7421875 C8.36527765 28.55895893 6.76891804 27.37667347 5.171875 26.1953125 C4.38780273 25.61072266 3.60373047 25.02613281 2.79589844 24.42382812 C-0.4023532 22.05709442 -3.64622942 19.76150285 -6.9140625 17.4921875 C-8.42806641 16.43257813 -8.42806641 16.43257813 -9.97265625 15.3515625 C-14.55014032 12.40940425 -19.17634135 11.59163298 -24.4765625 12.7421875 C-29.15096089 15.28275744 -33.27590147 18.50264676 -37.4765625 21.7421875 C-38.7393363 22.69346612 -40.0036974 23.64264085 -41.26953125 24.58984375 C-43.26884145 26.08658694 -45.26666449 27.5850097 -47.25878906 29.09130859 C-52.03636234 32.69773019 -56.88499553 36.18519548 -61.7890625 39.6171875 C-68.70945252 44.46217699 -75.52697679 49.43304798 -82.31738281 54.45825195 C-89.91531135 60.07790731 -97.57294374 65.61223519 -105.24267578 71.13330078 C-108.23871055 73.29110068 -111.23176401 75.45301391 -114.22460938 77.61523438 C-116.47361558 79.24005846 -118.7231352 80.86417005 -120.97265625 82.48828125 C-123.98748769 84.66547773 -127.00030944 86.84541667 -130.01171875 89.02734375 C-138.78282901 95.37893512 -147.59401773 101.66857155 -156.44921875 107.90234375 C-161.23973673 111.27615716 -166.0266812 114.65378796 -170.73437691 118.14247799 C-173.13062792 119.8699417 -175.51345343 121.32942734 -178.14623833 122.66522312 C-182.73271826 125.14345133 -187.32838658 127.75188491 -189.27426386 132.81971622 C-190.58008071 139.07789716 -190.2738302 145.45047394 -190.12939453 151.80639648 C-190.13199645 153.94764735 -190.14071371 156.08889816 -190.15505981 158.23010254 C-190.17611268 164.0270473 -190.11041567 169.82007705 -190.0278039 175.61635089 C-189.95494237 181.69293596 -189.95867072 187.76949967 -189.95309448 193.84645081 C-189.93283307 204.05138963 -189.86050099 214.25485843 -189.75244141 224.45922852 C-189.61416451 237.53785403 -189.55861843 250.61542794 -189.53045845 263.69470119 C-189.50584582 274.96183115 -189.44638446 286.22873708 -189.37968969 297.49568677 C-189.35941542 301.10608372 -189.3432558 304.71648367 -189.32739639 308.32690239 C-189.29992095 314.01123462 -189.25075192 319.6950053 -189.18510056 325.37902069 C-189.16392087 327.45938758 -189.14927194 329.53983329 -189.14179993 331.62029457 C-189.63201619 347.9917359 -189.63201619 347.9917359 -183.02998543 362.42526913 C-178.71120802 366.26028456 -174.89642769 367.99082339 -169.18374348 367.99945641 C-168.10496034 368.0059053 -167.0261772 368.01235419 -165.91470367 368.0189985 C-164.73019109 368.0159013 -163.54567851 368.0128041 -162.32527161 368.00961304 C-161.06638632 368.01414415 -159.80750103 368.01867526 -158.51046771 368.02334368 C-155.01376802 368.03559305 -151.51716387 368.03531094 -148.02044761 368.03295493 C-144.25001603 368.03254724 -140.47961527 368.04358147 -136.709198 368.05307007 C-129.3205734 368.06969264 -121.93198072 368.07518022 -114.54333899 368.07629482 C-108.53664141 368.07724489 -102.52995437 368.08135312 -96.52326012 368.08769608 C-79.49318205 368.10531344 -62.46312921 368.1145344 -45.43304197 368.11303513 C-44.51468646 368.11295522 -43.59633095 368.1128753 -42.65014648 368.11279297 C-41.73066932 368.11271121 -40.81119216 368.11262945 -39.86385205 368.11254521 C-24.96803273 368.1117326 -10.07231461 368.13086249 4.82347544 368.1590697 C20.11837059 368.18780403 35.41321641 368.20160963 50.70813924 368.19988215 C59.2949989 368.19921834 67.88175253 368.2047063 76.46858788 368.22623825 C83.78125343 368.24445748 91.09376494 368.24879149 98.40644338 368.2352194 C102.13620978 368.22869288 105.86568071 368.22856069 109.59541893 368.2459259 C113.64291193 368.26457627 117.68972196 368.25209364 121.73722839 368.23666382 C123.49726685 368.25209451 123.49726685 368.25209451 125.29286164 368.26783693 C133.30287345 368.20035997 139.39666446 366.78296764 145.8984375 361.9921875 C150.26886642 355.94082437 150.97207579 349.72044476 150.98513794 342.50212097 C150.9982847 341.60466528 151.01143146 340.70720958 151.02497661 339.78255826 C151.06485478 336.79276259 151.0836108 333.80323147 151.10205078 330.81323242 C151.12577552 328.66242808 151.1505837 326.51163546 151.1763916 324.3608551 C151.25477116 317.31490337 151.30093177 310.2689005 151.34375 303.22265625 C151.35983795 300.79225447 151.3759705 298.36185299 151.39214706 295.9314518 C151.45697949 285.82160027 151.51318994 275.71176262 151.54701424 265.6017561 C151.59575103 251.13264848 151.69537816 236.66595469 151.86621678 222.19775695 C151.98238235 212.01152068 152.04091865 201.82592959 152.05677593 191.6390484 C152.06772461 185.55953232 152.1036415 179.48259603 152.20108414 173.40379906 C152.29146537 167.68412298 152.31022661 161.9685808 152.27493286 156.24834251 C152.27427175 154.15486204 152.29910361 152.06118721 152.35189438 149.96837234 C152.93055761 139.34434455 152.93055761 139.34434455 149.0500865 129.83397317 C145.52563376 126.47553518 141.59238514 124.01781023 137.31545806 121.72964823 C134.85211017 120.37226464 132.64193844 118.73047615 130.40234375 117.03515625 C128.23338022 115.47327197 126.06307969 113.91326163 123.89257812 112.35351562 C121.7656191 110.82172361 119.64373183 109.28318801 117.5234375 107.7421875 C116.78335449 107.20932129 116.04327148 106.67645508 115.28076172 106.12744141 C114.20785889 105.34312744 114.20785889 105.34312744 113.11328125 104.54296875 C112.47124756 104.07673096 111.82921387 103.61049316 111.16772461 103.13012695 C108.65331838 101.00772169 107.57796993 99.34906408 107.28292847 96.06562805 C107.28736969 94.98863144 107.29181091 93.91163483 107.29638672 92.80200195 C107.29653778 91.58096268 107.29668884 90.3599234 107.29684448 89.10188293 C107.30716705 87.78306625 107.31748962 86.46424957 107.328125 85.10546875 C107.33185589 83.74212349 107.3347025 82.37877554 107.33670044 81.01542664 C107.34433097 77.42984596 107.36397435 73.84442771 107.3861084 70.25891113 C107.40657939 66.59906206 107.41570483 62.93918671 107.42578125 59.27929688 C107.4472209 52.10018643 107.48134971 44.92120974 107.5234375 37.7421875 C113.18594071 37.01116762 117.45590711 37.0254806 122.12548828 40.58544922 C125.04132634 43.51283443 126.03811457 45.52206158 126.23779297 49.64501953 C126.15727758 51.51519442 126.03949311 53.38402167 125.890625 55.25 C125.82525697 57.30980681 125.76285162 59.36970939 125.703125 61.4296875 C125.56504428 64.64569522 125.39934406 67.85405036 125.17773438 71.06542969 C124.04576998 83.09297973 124.04576998 83.09297973 128.19482422 93.94250488 C132.43859416 97.93078458 137.26132285 100.81960413 142.37091064 103.56732178 C144.99995524 105.00227455 147.38432713 106.67932886 149.7890625 108.4609375 C151.80095583 109.86812187 153.81547459 111.27138214 155.83203125 112.671875 C166.84328497 120.38188244 166.84328497 120.38188244 168.5234375 123.7421875 C168.6282945 126.74100114 168.67123027 129.71694631 168.67060852 132.71629333 C168.67428521 133.65762511 168.6779619 134.59895688 168.68175 135.56881386 C168.69281852 138.74306557 168.6966361 141.91728458 168.70043945 145.09155273 C168.7067019 147.35968633 168.71334851 149.62781889 168.72035217 151.89595032 C168.73778664 158.07405582 168.74832142 164.25215356 168.7565577 170.43027759 C168.76170455 174.29013437 168.76778055 178.14998874 168.77406883 182.00984383 C168.79094512 192.70110934 168.80557791 203.39237143 168.81281757 214.08364773 C168.81472743 216.8590692 168.81664776 219.63449067 168.81860352 222.40991211 C168.81908726 223.09971832 168.819571 223.78952453 168.8200694 224.50023396 C168.8283595 235.66041826 168.8536767 246.82049502 168.88618419 257.98063242 C168.91930389 269.44473378 168.93693856 280.90875503 168.94046181 292.37290913 C168.94281135 298.80695555 168.95175902 305.24083223 168.97692299 311.6748333 C169.00023308 317.73312312 169.00442489 323.79113181 168.99416161 329.84945488 C168.99366679 332.06856217 168.99997103 334.28768343 169.01371765 336.5067482 C169.10597878 352.28832613 168.35267723 364.55852806 156.8984375 376.42578125 C152.6187367 380.39837389 147.96590085 382.71622822 142.5234375 384.7421875 C141.74163148 385.08439646 140.95982546 385.42660542 140.15432835 385.77918434 C134.81320538 387.19578388 129.62390422 387.0240597 124.12059021 387.00961304 C122.85873478 387.01414415 121.59687936 387.01867526 120.29678589 387.02334368 C116.80092568 387.03556198 113.30516125 387.03531459 109.80928457 387.03295493 C106.03608504 387.03254645 102.26291608 387.04358909 98.48973083 387.05307007 C91.09870123 387.0696761 83.70770352 387.07517949 76.31665682 387.07629482 C70.30575084 387.07724577 64.29485537 387.08135838 58.28395271 387.08769608 C41.23061608 387.10530968 24.17730461 387.1145351 7.12395882 387.11303513 C6.20479801 387.11295522 5.28563721 387.1128753 4.33862305 387.11279297 C3.41833551 387.11271121 2.49804798 387.11262945 1.54987294 387.11254521 C-13.35281676 387.11173293 -28.25540524 387.13085563 -43.15806568 387.1590697 C-58.47112365 387.18783113 -73.78413232 387.20160811 -89.09721798 387.19988215 C-97.68976454 387.19921923 -106.28220507 387.20466803 -114.87472725 387.22623825 C-122.19345155 387.24449328 -129.51202179 387.24876227 -136.83075906 387.2352194 C-140.56103496 387.22871061 -144.2910157 387.22849606 -148.02126312 387.2459259 C-152.07600619 387.26467599 -156.13007247 387.25204732 -160.18482971 387.23666382 C-161.34906403 387.24695094 -162.51329834 387.25723807 -163.71281248 387.26783693 C-177.2533288 387.1548278 -187.52807188 383.45899566 -197.21875 374.05078125 C-205.24418795 365.4463938 -206.62612677 355.66644562 -206.62373352 344.3293457 C-206.62741021 343.38923551 -206.6310869 342.44912531 -206.634875 341.48052692 C-206.64587629 338.33466862 -206.64974955 335.18884338 -206.65356445 332.04296875 C-206.65983151 329.78583675 -206.66647852 327.52870578 -206.67347717 325.27157593 C-206.69448132 317.86595371 -206.70487231 310.46033137 -206.71484375 303.0546875 C-206.71889188 300.50468942 -206.72300882 297.95469146 -206.72719383 295.4046936 C-206.74405316 284.80161325 -206.75869062 274.19853501 -206.76594257 263.59544373 C-206.76785233 260.84780882 -206.76977269 258.10017393 -206.77172852 255.35253906 C-206.77221226 254.66966454 -206.772696 253.98679001 -206.7731944 253.28322232 C-206.78150253 242.21044573 -206.80685779 231.13777688 -206.83930919 220.06504738 C-206.87237416 208.69011734 -206.89005768 197.31526143 -206.89358681 185.94027615 C-206.89594026 179.55619154 -206.90494011 173.17227764 -206.93004799 166.78823853 C-206.95327275 160.78654392 -206.9575844 154.78513314 -206.94728661 148.7834053 C-206.94678987 146.57993248 -206.95315076 144.37644593 -206.96684265 142.17301559 C-206.98448023 139.16667753 -206.9774953 136.16136728 -206.96430969 133.1550293 C-206.97527894 132.28168096 -206.98624818 131.40833261 -206.99754983 130.50851917 C-206.94020618 125.09934957 -206.04411557 122.05472209 -202.4765625 117.7421875 C-200.83935547 116.25756836 -200.83935547 116.25756836 -199.21875 115.20703125 C-198.29425049 114.59202759 -198.29425049 114.59202759 -197.35107422 113.96459961 C-196.69123535 113.54057861 -196.03139648 113.11655762 -195.3515625 112.6796875 C-193.91265714 111.72346556 -192.47521235 110.76504298 -191.0390625 109.8046875 C-190.29140625 109.30710937 -189.54375 108.80953125 -188.7734375 108.296875 C-184.90374742 105.67759498 -181.12953359 102.92888302 -177.3515625 100.1796875 C-175.8282101 99.07410149 -174.30477381 97.96863105 -172.78125 96.86328125 C-171.68635254 96.06833252 -171.68635254 96.06833252 -170.56933594 95.25732422 C-167.54902325 93.07066293 -164.51394143 90.90504888 -161.4765625 88.7421875 C-153.88799771 83.33343409 -146.33771892 77.8720107 -138.78662109 72.41113281 C-136.52475421 70.77700451 -134.26079942 69.1458162 -131.99609375 67.515625 C-124.2912538 61.96668777 -116.6137519 56.38394876 -108.9765625 50.7421875 C-100.59707792 44.55207631 -92.16548887 38.43744441 -83.71044922 32.35107422 C-79.96296455 29.65206614 -76.22004655 26.94673999 -72.4765625 24.2421875 C-70.98698336 23.16666086 -69.49740002 22.09114004 -68.0078125 21.015625 C-64.90219679 18.77283035 -61.79826049 16.52773389 -58.6953125 14.28125 C-54.29361774 11.09521837 -49.88666596 7.91656654 -45.4765625 4.7421875 C-44.44015625 3.99453125 -43.40375 3.246875 -42.3359375 2.4765625 C-28.23361496 -7.57239787 -14.91329135 -9.78012212 0 0 Z " fill="#3DD0F7" transform="translate(529.4765625,311.2578125)"/>
<path d="M0 0 C3.20482351 0.99830019 6.16408518 2.1929287 9 4 C12.05088836 10.10177672 11.10002207 20.41734957 10 27 C8.14237097 30.0894045 6.6153209 31.6071434 3.65234375 33.59765625 C3.10707031 34.06042969 2.56179688 34.52320313 2 35 C2.04857293 37.70389335 2.83934019 38.81335111 4.59375 40.8515625 C5.2228125 41.43679688 5.851875 42.02203125 6.5 42.625 C10.94573236 46.79742914 10.94573236 46.79742914 11.09765625 50.1640625 C11.08025391 51.38222656 11.08025391 51.38222656 11.0625 52.625 C11.05347656 53.44226563 11.04445313 54.25953125 11.03515625 55.1015625 C11.01775391 56.04128906 11.01775391 56.04128906 11 57 C10.34 57 9.68 57 9 57 C8.6596875 58.1446875 8.6596875 58.1446875 8.3125 59.3125 C6.62176495 62.77448129 5.58975819 63.57905405 2 65 C-1.34976542 65.23597122 -4.64844123 65.17571279 -8 65 C-7.93039062 65.556875 -7.86078125 66.11375 -7.7890625 66.6875 C-7.36648158 72.64387865 -8.58873197 75.73591497 -12.296875 80.37109375 C-14.88247868 82.84402204 -17.19020538 83.84934054 -20.6875 84.5 C-25.61330525 83.75648223 -29.18960979 81.13214076 -33 78 C-33.66 77.01 -34.32 76.02 -35 75 C-38.25207092 76.41738489 -40.31361067 78.12526412 -42.75 80.6875 C-45.45030849 83.46309591 -48.18909294 86.09966998 -51.125 88.625 C-51.7746875 89.19734375 -52.424375 89.7696875 -53.09375 90.359375 C-54.33420164 91.42697682 -55.60468304 92.46094691 -56.90625 93.453125 C-58.90409859 94.99599611 -58.90409859 94.99599611 -61 98 C-60.50395828 101.70120385 -60.50395828 101.70120385 -59.671875 104.26171875 C-56.90651045 115.53218708 -59.09708376 127.32466017 -64.28515625 137.52734375 C-70.54966335 147.73552385 -79.59918425 153.97623246 -90.89453125 157.609375 C-102.03115271 159.67553854 -114.46507453 158.13442339 -124.40625 152.6796875 C-126.44667985 151.2435388 -128.21040033 149.73708321 -130 148 C-130.60199219 147.42507813 -131.20398438 146.85015625 -131.82421875 146.2578125 C-141.61718847 136.01874221 -144.42942664 124.9432136 -144.20703125 111.26953125 C-143.78360985 99.37476677 -138.14815836 90.63234977 -129.5625 82.625 C-121.56482942 75.89011951 -113.04364247 72.69268588 -102.5 72.8125 C-101.2521875 72.81894531 -100.004375 72.82539063 -98.71875 72.83203125 C-95 73 -95 73 -91.484375 73.90234375 C-87.68834599 74.0087347 -87.2845756 73.85164224 -84.546875 71.546875 C-83.26082091 70.3020143 -81.99677262 69.03420065 -80.75 67.75 C-80.04907227 67.05994873 -79.34814453 66.36989746 -78.62597656 65.65893555 C-77.01220221 64.06304283 -75.40845015 62.45697928 -73.8125 60.84326172 C-70.58073406 57.57614834 -67.32254347 54.33650215 -64.0625 51.09765625 C-58.28191198 45.34753922 -52.52309089 39.57618129 -46.77636719 33.79223633 C-45.86016602 32.87079834 -44.94396484 31.94936035 -44 31 C-43.09668945 30.05471436 -42.19337891 29.10942871 -41.26269531 28.13549805 C-39 26 -39 26 -37 26 C-36.79761719 25.46117187 -36.59523438 24.92234375 -36.38671875 24.3671875 C-34.42948924 21.02611403 -31.66865527 18.68086511 -28.8125 16.125 C-27.93283569 15.32545898 -27.93283569 15.32545898 -27.03540039 14.50976562 C-23.08527381 10.93237511 -19.05832769 7.4538959 -15 4 C-14.4225 3.21625 -13.845 2.4325 -13.25 1.625 C-9.26548843 -1.2527028 -4.71526001 -0.64731699 0 0 Z " fill="#3E162F" transform="translate(617,318)"/>
<path d="M0 0 C3.62931004 2.11709752 5.50270128 4.11597516 7 8 C7.24050903 11.25238037 7.24050903 11.25238037 7.22705078 15.15527344 C7.22734283 15.86786819 7.22763489 16.58046295 7.22793579 17.31465149 C7.22654577 19.66301781 7.21100022 22.01106431 7.1953125 24.359375 C7.1915812 25.99033434 7.18873478 27.62129592 7.18673706 29.2522583 C7.1791098 33.53979711 7.15946912 37.8271999 7.1373291 42.11468506 C7.11685112 46.49180257 7.10773117 50.86894212 7.09765625 55.24609375 C7.07622235 63.83079151 7.04209739 72.41537882 7 81 C7.55488098 80.99333817 8.10976196 80.98667633 8.68145752 80.97981262 C14.45636196 80.91344502 20.23115807 80.86819359 26.00634766 80.83520508 C28.16166586 80.82011818 30.31695336 80.79964611 32.47216797 80.77368164 C35.57006404 80.73729456 38.66755423 80.72027261 41.765625 80.70703125 C42.72929993 80.69154739 43.69297485 80.67606354 44.68585205 80.66011047 C45.58648376 80.65988388 46.48711548 80.65965729 47.41503906 80.65942383 C48.20557678 80.65276199 48.9961145 80.64610016 49.81060791 80.63923645 C52.59330759 81.09776401 53.94846343 82.09294899 56 84 C57.0625 86.8125 57.0625 86.8125 57 90 C53.67389143 95.5548554 53.67389143 95.5548554 49.88412476 96.56268311 C47.27541991 96.79132765 44.72408247 96.83071984 42.10546875 96.8046875 C40.68443596 96.82524704 40.68443596 96.82524704 39.23469543 96.84622192 C36.2184803 96.88351617 33.20391295 96.87980742 30.1875 96.875 C28.13864614 96.89312715 26.08981409 96.9139299 24.04101562 96.9375 C19.02706769 96.98934583 14.01420129 97.0044309 9 97 C8.34 99.64 7.68 102.28 7 105 C8.24129543 104.98340773 8.24129543 104.98340773 9.50766754 104.96648026 C29.65543063 104.7013178 49.80289252 104.50282143 69.952034 104.37825394 C79.69619965 104.31640995 89.43919976 104.23212005 99.18261719 104.09472656 C107.67640384 103.97501155 116.16934643 103.89767736 124.6639533 103.87093806 C129.16117203 103.85530913 133.65597643 103.81866756 138.15242004 103.73123932 C142.38854335 103.64954301 146.62126843 103.62470289 150.85810471 103.64270782 C152.40943789 103.6394165 153.96088902 103.61567199 155.51153946 103.5695343 C160.20924677 103.43666079 164.48271471 103.51621553 169 105 C172.6143347 108.58478941 174.68010712 112.51583171 177 117 C178.31165049 118.683784 179.64216782 120.35323125 181 122 C181.556875 123.03125 182.11375 124.0625 182.6875 125.125 C186.15385788 131.40604047 191.01868097 138.01245398 197 142 C197 142.66 197 143.32 197 144 C198.32 144.33 199.64 144.66 201 145 C201.21602572 148.16837727 201.35760951 150.33906564 199.82592773 153.16992188 C197.38297828 155.61842423 196.01670402 155.51525312 192.59765625 155.53125 C191.01500977 155.53898437 191.01500977 155.53898437 189.40039062 155.546875 C188.29888672 155.53140625 187.19738281 155.5159375 186.0625 155.5 C184.96486328 155.51546875 183.86722656 155.5309375 182.73632812 155.546875 C181.67994141 155.54171875 180.62355469 155.5365625 179.53515625 155.53125 C178.569729 155.52673828 177.60430176 155.52222656 176.60961914 155.51757812 C174 155 174 155 170 151 C170 144.73 170 138.46 170 132 C118.19 132 66.38 132 13 132 C13 138.6 13 145.2 13 152 C8.88013856 155.08989608 8.24911415 155.3816688 3.46484375 155.3984375 C2.40845703 155.40230469 1.35207031 155.40617188 0.26367188 155.41015625 C-1.3827832 155.39275391 -1.3827832 155.39275391 -3.0625 155.375 C-4.16400391 155.38660156 -5.26550781 155.39820313 -6.40039062 155.41015625 C-7.98303711 155.40435547 -7.98303711 155.40435547 -9.59765625 155.3984375 C-10.56195557 155.39505371 -11.52625488 155.39166992 -12.51977539 155.38818359 C-15.5153785 154.91933736 -16.20512059 154.40663259 -18 152 C-18.38590336 149.40150833 -18.38590336 149.40150833 -18.40113831 146.21954346 C-18.41393326 145.0138974 -18.42672821 143.80825134 -18.43991089 142.56607056 C-18.43886231 141.22796601 -18.4374777 139.8898617 -18.43579102 138.55175781 C-18.44476671 137.14396358 -18.45497452 135.73617675 -18.46632385 134.32839966 C-18.49285353 130.50174368 -18.4998587 126.67528889 -18.50177121 122.84854984 C-18.50390287 120.45692156 -18.51030616 118.06534451 -18.51826286 115.67372894 C-18.54603032 107.32737478 -18.55826716 98.98116444 -18.5559082 90.63476562 C-18.55410739 82.85985547 -18.58572962 75.08557083 -18.63313919 67.31081891 C-18.67240579 60.63296744 -18.68845815 53.95532 -18.68654197 47.277354 C-18.68577791 43.29022168 -18.69427949 39.30364465 -18.72607613 35.3166275 C-18.75518777 31.56363071 -18.75531329 27.81171716 -18.73352623 24.05868149 C-18.7289084 22.03108203 -18.75388619 20.00348222 -18.77984619 17.9760437 C-18.67681732 8.01229842 -18.67681732 8.01229842 -15.07945251 3.68963623 C-10.58555569 -0.67612067 -6.06275655 -0.69697831 0 0 Z " fill="#BB5EEA" transform="translate(398,478)"/>
<path d="M0 0 C1.22009766 0.49306641 1.22009766 0.49306641 2.46484375 0.99609375 C14.87532001 6.52248457 24.19711208 16.84858408 29.375 29.3125 C34.64169311 43.16619274 32.75577639 57.67416463 27 71 C26.48824219 72.20398438 25.97648438 73.40796875 25.44921875 74.6484375 C17.18058746 92.89554934 4.72284184 109.62121138 -8 125 C-8.96292969 126.29550781 -8.96292969 126.29550781 -9.9453125 127.6171875 C-12.56109516 131.00714799 -14.54115339 133.47461644 -18.9375 134.0625 C-23.7489395 133.51658667 -26.05618105 130.35250601 -28.9453125 126.73828125 C-29.62335937 125.83464844 -30.30140625 124.93101562 -31 124 C-31.69867187 123.10667969 -32.39734375 122.21335937 -33.1171875 121.29296875 C-37.5819575 115.48558998 -41.80879523 109.50664275 -46 103.5 C-46.48122314 102.81736084 -46.96244629 102.13472168 -47.45825195 101.43139648 C-48.12860474 100.45988647 -48.12860474 100.45988647 -48.8125 99.46875 C-49.21082031 98.89576172 -49.60914063 98.32277344 -50.01953125 97.73242188 C-51.0885432 95.84355017 -51.56836795 94.11871003 -52 92 C-52.66 92 -53.32 92 -54 92 C-54.67154933 90.71086513 -55.33708859 89.41859796 -56 88.125 C-56.37125 87.40570312 -56.7425 86.68640625 -57.125 85.9453125 C-58 84 -58 84 -58 82 C-58.66 82 -59.32 82 -60 82 C-61.48657647 78.4405474 -62.9629424 74.87694652 -64.4375 71.3125 C-64.85837891 70.30509766 -65.27925781 69.29769531 -65.71289062 68.25976562 C-66.11572266 67.28330078 -66.51855469 66.30683594 -66.93359375 65.30078125 C-67.4913147 63.95753784 -67.4913147 63.95753784 -68.06030273 62.5871582 C-72.29235076 50.93555703 -70.88961752 37.17421417 -66 26 C-58.97139806 12.62129977 -48.30248205 3.14889354 -34 -2 C-23.54102743 -4.73512726 -9.87630481 -4.36394864 0 0 Z " fill="#1F3E50" transform="translate(625,482)"/>
<path d="M0 0 C3.20482351 0.99830019 6.16408518 2.1929287 9 4 C12.05088836 10.10177672 11.10002207 20.41734957 10 27 C8.14237097 30.0894045 6.6153209 31.6071434 3.65234375 33.59765625 C3.10707031 34.06042969 2.56179688 34.52320313 2 35 C2.04857293 37.70389335 2.83934019 38.81335111 4.59375 40.8515625 C5.2228125 41.43679688 5.851875 42.02203125 6.5 42.625 C10.94573236 46.79742914 10.94573236 46.79742914 11.09765625 50.1640625 C11.08025391 51.38222656 11.08025391 51.38222656 11.0625 52.625 C11.05347656 53.44226563 11.04445313 54.25953125 11.03515625 55.1015625 C11.01775391 56.04128906 11.01775391 56.04128906 11 57 C10.34 57 9.68 57 9 57 C8.6596875 58.1446875 8.6596875 58.1446875 8.3125 59.3125 C6.62176495 62.77448129 5.58975819 63.57905405 2 65 C-1.34976542 65.23597122 -4.64844123 65.17571279 -8 65 C-7.93039062 65.556875 -7.86078125 66.11375 -7.7890625 66.6875 C-7.36648158 72.64387865 -8.58873197 75.73591497 -12.296875 80.37109375 C-14.88247868 82.84402204 -17.19020538 83.84934054 -20.6875 84.5 C-25.61330525 83.75648223 -29.18960979 81.13214076 -33 78 C-33.66 77.01 -34.32 76.02 -35 75 C-38.25207092 76.41738489 -40.31361067 78.12526412 -42.75 80.6875 C-45.45030849 83.46309591 -48.18909294 86.09966998 -51.125 88.625 C-51.7746875 89.19734375 -52.424375 89.7696875 -53.09375 90.359375 C-54.33420164 91.42697682 -55.60468304 92.46094691 -56.90625 93.453125 C-58.90409859 94.99599611 -58.90409859 94.99599611 -61 98 C-60.50395828 101.70120385 -60.50395828 101.70120385 -59.671875 104.26171875 C-56.90651045 115.53218708 -59.09708376 127.32466017 -64.28515625 137.52734375 C-70.54966335 147.73552385 -79.59918425 153.97623246 -90.89453125 157.609375 C-102.03115271 159.67553854 -114.46507453 158.13442339 -124.40625 152.6796875 C-126.44667985 151.2435388 -128.21040033 149.73708321 -130 148 C-130.60199219 147.42507813 -131.20398438 146.85015625 -131.82421875 146.2578125 C-141.61718847 136.01874221 -144.42942664 124.9432136 -144.20703125 111.26953125 C-143.78360985 99.37476677 -138.14815836 90.63234977 -129.5625 82.625 C-121.56482942 75.89011951 -113.04364247 72.69268588 -102.5 72.8125 C-101.2521875 72.81894531 -100.004375 72.82539063 -98.71875 72.83203125 C-95 73 -95 73 -91.484375 73.90234375 C-87.68834599 74.0087347 -87.2845756 73.85164224 -84.546875 71.546875 C-83.26082091 70.3020143 -81.99677262 69.03420065 -80.75 67.75 C-80.04907227 67.05994873 -79.34814453 66.36989746 -78.62597656 65.65893555 C-77.01220221 64.06304283 -75.40845015 62.45697928 -73.8125 60.84326172 C-70.58073406 57.57614834 -67.32254347 54.33650215 -64.0625 51.09765625 C-58.28191198 45.34753922 -52.52309089 39.57618129 -46.77636719 33.79223633 C-45.86016602 32.87079834 -44.94396484 31.94936035 -44 31 C-43.09668945 30.05471436 -42.19337891 29.10942871 -41.26269531 28.13549805 C-39 26 -39 26 -37 26 C-36.79761719 25.46117187 -36.59523438 24.92234375 -36.38671875 24.3671875 C-34.42948924 21.02611403 -31.66865527 18.68086511 -28.8125 16.125 C-27.93283569 15.32545898 -27.93283569 15.32545898 -27.03540039 14.50976562 C-23.08527381 10.93237511 -19.05832769 7.4538959 -15 4 C-14.4225 3.21625 -13.845 2.4325 -13.25 1.625 C-9.26548843 -1.2527028 -4.71526001 -0.64731699 0 0 Z M-13 14.5625 C-13.95525233 15.60829136 -14.9136408 16.65122594 -15.875 17.69140625 C-16.37644531 18.23812988 -16.87789062 18.78485352 -17.39453125 19.34814453 C-19.04124682 21.04243856 -20.76197196 22.56062169 -22.5625 24.08984375 C-28.71089561 29.37252539 -34.30603914 35.23844549 -40 41 C-52.86227256 54.01496205 -52.86227256 54.01496205 -59.10888672 59.33154297 C-62.94416734 62.7152646 -66.4781189 66.41731515 -70.0625 70.0625 C-73.01739397 73.0672656 -75.98773964 76.05268 -79 79 C-79.96510498 79.94734009 -79.96510498 79.94734009 -80.94970703 80.91381836 C-85.30295607 84.94975297 -85.30295607 84.94975297 -88.546875 85.18359375 C-89.27390625 84.93738281 -90.0009375 84.69117188 -90.75 84.4375 C-91.48734375 84.20933594 -92.2246875 83.98117187 -92.984375 83.74609375 C-93.64953125 83.49988281 -94.3146875 83.25367188 -95 83 C-101.05491478 80.98169507 -107.70689358 81.12440686 -113.625 83.5625 C-123.59070343 88.67905972 -129.03994625 95.0798925 -134 105 C-134.82862939 118.14939758 -134.52324266 127.97113919 -125.6875 138.375 C-119.01108901 145.34644061 -111.93642465 148.96371674 -102.125 149.3125 C-92.94755247 149.09001642 -84.83034655 145.41631685 -78.0859375 139.25 C-70.40792098 131.14724214 -68.46342807 123.00410042 -68.50952148 112.12841797 C-68.7115918 106.36586336 -70.13243044 102.87486825 -73 98 C-71.83566152 93.76359922 -68.17318167 91.18568769 -65 88.375 C-60.78861693 84.57431282 -56.66968176 80.73161305 -52.6875 76.6875 C-49.1224876 73.07596215 -45.45521412 69.6667399 -41.59375 66.375 C-40.34946955 65.30150314 -39.16203041 64.16203041 -38 63 C-34 63 -34 63 -31.625 65.125 C-30.23820221 66.64387377 -28.85361069 68.16492439 -27.48828125 69.703125 C-25.77438324 71.60313138 -25.77438324 71.60313138 -23 74 C-20.84365047 73.74148123 -20.84365047 73.74148123 -19 73 C-17.99782936 69.41672247 -17.99782936 69.41672247 -19 66 C-19.47211087 63.03244595 -19.49044397 60.94123502 -18.08203125 58.23828125 C-16.4876316 56.23242363 -15.30994808 55.14223535 -13 54 C-9.75709305 53.91132676 -6.80861154 54.24037721 -3.609375 54.765625 C-2.74828125 54.84296875 -1.8871875 54.9203125 -1 55 C-0.01 54.01 -0.01 54.01 1 53 C0.95725698 49.75153083 -0.27584026 48.71142865 -2.5390625 46.34375 C-4.0847311 44.89818947 -5.64971908 43.47787341 -7.2265625 42.06640625 C-8.7265625 40.65625 -8.7265625 40.65625 -11 38 C-10.9599627 34.78557666 -10.0272783 34.02961644 -7.8125 31.625 C-5 29 -5 29 -3.3359375 27.83984375 C-1.35778975 26.30701362 -0.22440527 25.20557851 1 23 C1.51027712 18.29177299 1.34887822 13.71631664 1 9 C-5.70628536 8.35683255 -8.52136017 9.40099063 -13 14.5625 Z " fill="#F36AC1" transform="translate(617,318)"/>
<path d="M0 0 C1.22450867 -0.00287018 1.22450867 -0.00287018 2.47375488 -0.00579834 C4.21216131 -0.00716118 5.95057789 -0.00345785 7.68896484 0.00488281 C10.27857184 0.01536127 12.86744915 0.00510808 15.45703125 -0.0078125 C24.07943508 -0.0156503 32.60676921 0.27780973 41.1875 1.15625 C41.95574097 1.23373474 42.72398193 1.31121948 43.51550293 1.39105225 C48.15329335 1.91705461 52.37800447 2.91812057 56.84375 4.265625 C59.43305993 4.50255275 59.43305993 4.50255275 61.78125 4.390625 C62.55339844 4.37257813 63.32554687 4.35453125 64.12109375 4.3359375 C64.68957031 4.31273437 65.25804687 4.28953125 65.84375 4.265625 C65.84375 4.925625 65.84375 5.585625 65.84375 6.265625 C67.16375 6.595625 68.48375 6.925625 69.84375 7.265625 C69.90433594 8.36261719 69.96492187 9.45960938 70.02734375 10.58984375 C70.11179498 12.04428154 70.19644066 13.49870805 70.28125 14.953125 C70.32056641 15.67435547 70.35988281 16.39558594 70.40039062 17.13867188 C70.70823139 22.76413147 70.70823139 22.76413147 71.84375 28.265625 C72.50375 28.595625 73.16375 28.925625 73.84375 29.265625 C77.84375 38.015625 77.84375 38.015625 77.84375 42.265625 C78.50375 42.595625 79.16375 42.925625 79.84375 43.265625 C80.6953125 44.97265625 80.6953125 44.97265625 81.46875 47.078125 C81.72914063 47.76519531 81.98953125 48.45226562 82.2578125 49.16015625 C82.84375 51.265625 82.84375 51.265625 82.84375 55.265625 C70.80417907 55.27392529 58.76514057 55.25013758 46.72572803 55.1853466 C41.13531676 55.15627048 35.54532555 55.13826201 29.95483398 55.14550781 C24.55990944 55.1520936 19.16581552 55.12965821 13.77106285 55.08707047 C11.71261234 55.07592594 9.65407774 55.07525117 7.59562111 55.08520126 C4.7123207 55.09735249 1.83156395 55.07233267 -1.05151367 55.03857422 C-2.32897713 55.05690559 -2.32897713 55.05690559 -3.63224792 55.0756073 C-9.22507533 54.957556 -9.22507533 54.957556 -11.80837727 53.0379734 C-14.41506659 50.13753223 -15.78277205 47.61608015 -15.72387695 43.72900391 C-15.7234993 42.88858551 -15.72312164 42.04816711 -15.72273254 41.18228149 C-15.6840229 39.85068497 -15.6840229 39.85068497 -15.64453125 38.4921875 C-15.63745651 37.5684433 -15.63038177 36.6446991 -15.62309265 35.69296265 C-15.59522277 32.75800768 -15.53249888 29.82499807 -15.46875 26.890625 C-15.44365752 24.89455891 -15.42084602 22.89846275 -15.40039062 20.90234375 C-15.34542039 16.02269404 -15.25919966 11.14448873 -15.15625 6.265625 C-14.49625 6.265625 -13.83625 6.265625 -13.15625 6.265625 C-12.888125 5.646875 -12.62 5.028125 -12.34375 4.390625 C-9.5152598 -0.67088379 -5.1109512 -0.02659611 0 0 Z " fill="#B961ED" transform="translate(476.15625,519.734375)"/>
<path d="M0 0 C1.22009766 0.49306641 1.22009766 0.49306641 2.46484375 0.99609375 C14.87532001 6.52248457 24.19711208 16.84858408 29.375 29.3125 C34.64169311 43.16619274 32.75577639 57.67416463 27 71 C26.48824219 72.20398438 25.97648438 73.40796875 25.44921875 74.6484375 C17.18058746 92.89554934 4.72284184 109.62121138 -8 125 C-8.96292969 126.29550781 -8.96292969 126.29550781 -9.9453125 127.6171875 C-12.56109516 131.00714799 -14.54115339 133.47461644 -18.9375 134.0625 C-23.7489395 133.51658667 -26.05618105 130.35250601 -28.9453125 126.73828125 C-29.62335937 125.83464844 -30.30140625 124.93101562 -31 124 C-31.69867187 123.10667969 -32.39734375 122.21335937 -33.1171875 121.29296875 C-37.5819575 115.48558998 -41.80879523 109.50664275 -46 103.5 C-46.48122314 102.81736084 -46.96244629 102.13472168 -47.45825195 101.43139648 C-48.12860474 100.45988647 -48.12860474 100.45988647 -48.8125 99.46875 C-49.21082031 98.89576172 -49.60914063 98.32277344 -50.01953125 97.73242188 C-51.0885432 95.84355017 -51.56836795 94.11871003 -52 92 C-52.66 92 -53.32 92 -54 92 C-54.67154933 90.71086513 -55.33708859 89.41859796 -56 88.125 C-56.37125 87.40570312 -56.7425 86.68640625 -57.125 85.9453125 C-58 84 -58 84 -58 82 C-58.66 82 -59.32 82 -60 82 C-61.48657647 78.4405474 -62.9629424 74.87694652 -64.4375 71.3125 C-64.85837891 70.30509766 -65.27925781 69.29769531 -65.71289062 68.25976562 C-66.11572266 67.28330078 -66.51855469 66.30683594 -66.93359375 65.30078125 C-67.4913147 63.95753784 -67.4913147 63.95753784 -68.06030273 62.5871582 C-72.29235076 50.93555703 -70.88961752 37.17421417 -66 26 C-58.97139806 12.62129977 -48.30248205 3.14889354 -34 -2 C-23.54102743 -4.73512726 -9.87630481 -4.36394864 0 0 Z M-53.0625 23.25 C-59.89342046 32.94550001 -61.14102897 43.39363846 -60 55 C-55.08173511 78.30258122 -37.3758189 99.65473857 -23 118 C-21.99577672 119.3301554 -20.99387334 120.66209359 -20 122 C-16.60845163 120.57943444 -14.90488505 118.95801361 -12.71484375 116.02734375 C-12.10713135 115.21869873 -11.49941895 114.41005371 -10.87329102 113.5769043 C-9.91507446 112.27039917 -9.91507446 112.27039917 -8.9375 110.9375 C-7.94157837 109.5913562 -7.94157837 109.5913562 -6.92553711 108.21801758 C16.24462854 76.63961196 16.24462854 76.63961196 22 39 C21.4584595 35.65888854 20.55273719 32.99973242 19 30 C18.54753906 29.10925781 18.09507812 28.21851563 17.62890625 27.30078125 C11.18297729 15.97016751 1.31341819 10.17997061 -10.875 6.421875 C-28.77650193 2.86790035 -41.44424831 10.57554361 -53.0625 23.25 Z " fill="#6FF4F0" transform="translate(625,482)"/>
<path d="M0 0 C6.36832852 4.54574292 10.30681718 9.95994336 12.375 17.5 C13.22057214 25.09234775 13.2977277 32.01635979 8.98828125 38.53515625 C3.2692363 45.50048219 -2.64505559 49.81679711 -11.66796875 50.84765625 C-20.28916649 51.2418259 -26.84982128 49.65636506 -33.43359375 43.92578125 C-38.88525625 38.09345404 -41.80924427 31.53653966 -42.1875 23.5625 C-41.83360654 14.8589327 -38.47221493 8.90253632 -32.1875 3 C-23.93873527 -4.20106831 -9.60008564 -5.36904486 0 0 Z " fill="#6EF6F0" transform="translate(620.625,506.5)"/>
<path d="M0 0 C8.40594671 5.12046234 16.29680907 10.79047551 24.18847656 16.65869141 C27.77771085 19.3162727 31.40380984 21.92310741 35.0234375 24.5390625 C37 26 37 26 38 27 C38.10679757 29.80950974 38.14778325 32.59473458 38.14717102 35.40501404 C38.15084771 36.29719432 38.1545244 37.18937461 38.1583125 38.10859066 C38.16939669 41.12244828 38.17320123 44.13627148 38.17700195 47.15014648 C38.18326327 49.30153006 38.18990976 51.45291254 38.19691467 53.60429382 C38.2143608 59.46835163 38.22488725 65.33240125 38.2331202 71.19647861 C38.23826496 74.85949837 38.24434107 78.52251557 38.25063133 82.18553352 C38.26969741 93.64381466 38.28392293 105.1020893 38.2922433 116.56038326 C38.30200804 129.7902775 38.32830181 143.02000407 38.36874419 156.24983925 C38.39891629 166.47073936 38.41371341 176.69159147 38.41702431 186.91253525 C38.41937446 193.01848624 38.4283298 199.12425843 38.45348549 205.23016167 C38.4767887 210.97982785 38.48099019 216.72919781 38.47072411 222.478899 C38.47022911 224.58554698 38.47653876 226.69220964 38.49028015 228.79881287 C38.62242585 250.26469885 38.62242585 250.26469885 34 257 C26.67816043 264.12497402 18.34211103 264.29410132 8.60147095 264.27415466 C7.34017125 264.27939134 6.07887154 264.28462802 4.77935064 264.29002339 C1.28524387 264.30417918 -2.20877384 264.30586714 -5.70290518 264.30542648 C-9.47396776 264.30707679 -13.24499387 264.32014713 -17.01603699 264.33161926 C-25.25769102 264.35444986 -33.49931928 264.36238746 -41.74100065 264.36744571 C-46.88800279 264.37070433 -52.03499747 264.37722772 -57.18199539 264.3844471 C-71.4360219 264.4040088 -85.69004147 264.42041609 -99.94408226 264.42332363 C-101.31173524 264.42360499 -101.31173524 264.42360499 -102.70701758 264.42389202 C-104.55533226 264.42425827 -106.40364695 264.42462197 -108.25196163 264.42498314 C-109.16944906 264.42516595 -110.08693649 264.42534876 -111.03222656 264.42553711 C-111.95083503 264.42571766 -112.86944351 264.42589821 -113.8158886 264.42608423 C-128.7058112 264.42962707 -143.59558929 264.45665825 -158.48546176 264.494035 C-173.77702589 264.53211267 -189.0685183 264.55148106 -204.36013091 264.55178314 C-212.94416322 264.55236776 -221.52802304 264.56086263 -230.11201096 264.58978081 C-237.41992034 264.61428724 -244.72759429 264.62158249 -252.03553365 264.60653328 C-255.76322926 264.59936182 -259.49045987 264.60023141 -263.21810341 264.62294388 C-267.26157898 264.64734455 -271.30399557 264.63290541 -275.34750366 264.61473083 C-276.52241124 264.6279308 -277.69731881 264.64113077 -278.90782964 264.65473074 C-287.35228645 264.56793833 -292.28487454 262.61471666 -298.3125 256.75 C-302.41832618 250.059024 -303.44255092 243.33357263 -303.36076355 235.60362244 C-303.36332682 234.70163465 -303.3658901 233.79964686 -303.36853105 232.8703261 C-303.37344157 229.87161625 -303.3570213 226.87341871 -303.34057617 223.87475586 C-303.33972931 221.71582043 -303.3402062 219.55688414 -303.34190369 217.39794922 C-303.34276275 211.55355106 -303.32515123 205.70933845 -303.30418181 199.86498332 C-303.28540027 193.75110873 -303.2836634 187.63722967 -303.28010559 181.52333069 C-303.27078949 169.95319298 -303.24618151 158.38314052 -303.21605712 146.81304032 C-303.18249964 133.63776175 -303.1660237 120.46247906 -303.15097082 107.28716838 C-303.11963164 80.19139836 -303.06687952 53.09570396 -303 26 C-302.67 26 -302.34 26 -302 26 C-302 46.46 -302 66.92 -302 88 C-301.34 88 -300.68 88 -300 88 C-300.00092179 88.79145416 -300.00184359 89.58290833 -300.00279331 90.39834595 C-300.02489286 109.67021948 -300.04143318 128.94209049 -300.05181217 148.213974 C-300.05696498 157.53376725 -300.06398835 166.85355203 -300.07543945 176.17333984 C-300.08541729 184.29795462 -300.09186081 192.42256326 -300.09408849 200.54718399 C-300.09539033 204.84772755 -300.09844284 209.14825357 -300.10573006 213.4487915 C-300.11253918 217.50017245 -300.11460702 221.55152869 -300.11310768 225.60291481 C-300.11338181 227.08633369 -300.11535782 228.56975343 -300.11920547 230.05316734 C-300.96555415 243.74719785 -300.96555415 243.74719785 -295.67578125 255.6796875 C-292.48797287 258.1912941 -288.77949651 259.60018648 -285 261 C-285 261.33 -285 261.66 -285 262 C-249.76290383 262.02287282 -214.52580915 262.04050151 -179.28870712 262.05106533 C-175.13168038 262.05231608 -170.97465367 262.0536104 -166.81762695 262.05493164 C-165.57620691 262.05532511 -165.57620691 262.05532511 -164.30970768 262.05572652 C-150.89692297 262.06008164 -137.48414254 262.06796833 -124.07136037 262.0771528 C-110.3157052 262.08649372 -96.56005228 262.09205654 -82.80439407 262.09408849 C-74.31169488 262.09546281 -65.81900776 262.09980847 -57.32631228 262.10791647 C-51.50803082 262.11318932 -45.68975564 262.11480306 -39.87147196 262.11350138 C-36.51117015 262.11285885 -33.15090658 262.11440703 -29.79060555 262.11920547 C-26.15263814 262.12414766 -22.51472327 262.12299629 -18.87675476 262.12025452 C-17.27317353 262.12462378 -17.27317353 262.12462378 -15.63719672 262.12908131 C-14.666323 262.12709026 -13.69544928 262.12509921 -12.69515514 262.12304783 C-11.85483405 262.12342755 -11.01451296 262.12380727 -10.1487276 262.1241985 C-7.81414266 262.08302389 -7.81414266 262.08302389 -5 261 C-3.03874487 260.98658145 -1.07683904 261.03286004 0.8828125 261.11328125 C2.05070312 261.14357422 3.21859375 261.17386719 4.421875 261.20507812 C6.86785666 261.27603223 9.31335308 261.36680646 11.7578125 261.47851562 C19.08998545 261.6272494 23.54099157 260.9658223 29.32373047 256.30151367 C31 255 31 255 33 255 C34.70058676 249.08466244 35.29273244 243.82318909 35.2784729 237.68591309 C35.2871615 236.32808771 35.2871615 236.32808771 35.29602563 234.94283152 C35.31295166 231.92734575 35.31589576 228.91201371 35.31884766 225.89648438 C35.32815093 223.72784045 35.3383202 221.5592001 35.34928894 219.39056396 C35.37655787 213.51519958 35.3917292 207.63985914 35.40471697 201.76444817 C35.42036105 195.61983372 35.44714722 189.47526805 35.4727478 183.33068848 C35.51951292 171.7003696 35.55626805 160.07004153 35.58942068 148.43967676 C35.62765804 135.19666584 35.677064 121.95370395 35.72740483 108.71073437 C35.83069099 81.47385926 35.91996222 54.23695265 36 27 C35.39849121 26.70778564 34.79698242 26.41557129 34.17724609 26.11450195 C26.29272923 22.07852758 19.17500113 16.18763971 12 11 C11.40123047 10.56864746 10.80246094 10.13729492 10.18554688 9.69287109 C8.49305733 8.46942419 6.80791711 7.23656936 5.125 6 C3.64386719 4.9171875 3.64386719 4.9171875 2.1328125 3.8125 C1.42898438 3.214375 0.72515625 2.61625 0 2 C0 1.34 0 0.68 0 0 Z " fill="#19475C" transform="translate(643,416)"/>
<path d="M0 0 C5.03814363 2.46999899 8.87167363 6.37007697 12 11 C13.66881717 16.0064515 14.09634876 21.32964015 12.05859375 26.29296875 C8.70218287 31.90101578 4.4596244 36.27743349 -2 38 C-8.55437697 38.8639337 -13.54945597 38.05529422 -19.21484375 34.578125 C-22.10788024 32.02060478 -22.48368737 29.76170627 -23 26 C-23.66 26 -24.32 26 -25 26 C-25.05418326 23.91695462 -25.09287551 21.83350232 -25.125 19.75 C-25.14820313 18.58984375 -25.17140625 17.4296875 -25.1953125 16.234375 C-25.0103949 13.17213954 -24.60823023 11.55797249 -23 9 C-22.34 9 -21.68 9 -21 9 C-20.90332031 8.39671875 -20.80664062 7.7934375 -20.70703125 7.171875 C-19.60050448 3.7728204 -17.52116826 2.73044437 -14.51171875 0.99609375 C-9.69007492 -0.91606671 -5.05941237 -0.96564053 0 0 Z " fill="#BB5BEA" transform="translate(439,514)"/>
<path d="M0 0 C4.87101695 1.86968327 8.03175012 5.50100024 10.33984375 10.1171875 C12.12103156 15.19726162 11.50801095 19.41959317 9.375 24.1875 C6.72784273 28.94864152 3.37288394 31.72229326 -1.4375 34.3125 C-7.64231095 35.97720538 -12.42570898 35.09682835 -18 32 C-22.66801841 27.7137984 -24.77081971 23.36819635 -25.375 17.125 C-25.23369407 12.70295548 -23.68645397 9.46092719 -21 6 C-20.56042969 5.41605469 -20.12085938 4.83210938 -19.66796875 4.23046875 C-14.31416648 -1.55705928 -7.37821621 -1.14579358 0 0 Z " fill="#F267BE" transform="translate(518,420)"/>
<path d="M0 0 C3.88771314 2.77080107 6.49642896 5.49878178 8.62109375 9.82421875 C9.44575105 15.34422213 9.36934431 20.27229165 6.93359375 25.32421875 C0.21521548 32.58733039 0.21521548 32.58733039 -4.98828125 33.0625 C-15.65819674 33.31464974 -15.65819674 33.31464974 -20.37890625 28.82421875 C-24.47971406 24.89837874 -25.747956 21.51200203 -26.00390625 15.82421875 C-25.74264827 10.17539748 -24.57039689 6.65308679 -20.37890625 2.82421875 C-14.43221582 -1.81419979 -7.04911408 -3.48404489 0 0 Z " fill="#1D4654" transform="translate(614.37890625,514.17578125)"/>
<path d="M0 0 C8.40594671 5.12046234 16.29680907 10.79047551 24.18847656 16.65869141 C27.77771085 19.3162727 31.40380984 21.92310741 35.0234375 24.5390625 C37 26 37 26 38 27 C38.10679757 29.80950974 38.14778325 32.59473458 38.14717102 35.40501404 C38.15084771 36.29719432 38.1545244 37.18937461 38.1583125 38.10859066 C38.16939669 41.12244828 38.17320123 44.13627148 38.17700195 47.15014648 C38.18326327 49.30153006 38.18990976 51.45291254 38.19691467 53.60429382 C38.2143608 59.46835163 38.22488725 65.33240125 38.2331202 71.19647861 C38.23826496 74.85949837 38.24434107 78.52251557 38.25063133 82.18553352 C38.26969741 93.64381466 38.28392293 105.1020893 38.2922433 116.56038326 C38.30200804 129.7902775 38.32830181 143.02000407 38.36874419 156.24983925 C38.39891629 166.47073936 38.41371341 176.69159147 38.41702431 186.91253525 C38.41937446 193.01848624 38.4283298 199.12425843 38.45348549 205.23016167 C38.4767887 210.97982785 38.48099019 216.72919781 38.47072411 222.478899 C38.47022911 224.58554698 38.47653876 226.69220964 38.49028015 228.79881287 C38.62290694 250.34284867 38.62290694 250.34284867 34 257 C28.75607843 262.08345402 23.76030295 263.1508413 16.70703125 263.09765625 C15.64798836 263.09553383 15.64798836 263.09553383 14.56755066 263.09336853 C12.31582374 263.08777764 10.06419679 263.07522688 7.8125 263.0625 C6.28450665 263.05748382 4.75651173 263.05292112 3.22851562 263.04882812 C-0.51436135 263.0378112 -4.25716373 263.02055287 -8 263 C-7.67 262.34 -7.34 261.68 -7 261 C-6.16863525 261.0314209 -5.33727051 261.0628418 -4.48071289 261.09521484 C-1.35532087 261.19831428 1.76919658 261.27309264 4.89575195 261.32958984 C6.89788822 261.374119 8.89923738 261.45041425 10.90039062 261.52734375 C18.50061573 261.64220861 23.38294102 261.19625822 29.36547852 256.29931641 C31 255 31 255 33 255 C34.70058676 249.08466244 35.29273244 243.82318909 35.2784729 237.68591309 C35.2842653 236.78069617 35.2900577 235.87547925 35.29602563 234.94283152 C35.31295166 231.92734575 35.31589576 228.91201371 35.31884766 225.89648438 C35.32815093 223.72784045 35.3383202 221.5592001 35.34928894 219.39056396 C35.37655787 213.51519958 35.3917292 207.63985914 35.40471697 201.76444817 C35.42036105 195.61983372 35.44714722 189.47526805 35.4727478 183.33068848 C35.51951292 171.7003696 35.55626805 160.07004153 35.58942068 148.43967676 C35.62765804 135.19666584 35.677064 121.95370395 35.72740483 108.71073437 C35.83069099 81.47385926 35.91996222 54.23695265 36 27 C35.09773682 26.56167847 35.09773682 26.56167847 34.17724609 26.11450195 C26.29272923 22.07852758 19.17500113 16.18763971 12 11 C11.40123047 10.56864746 10.80246094 10.13729492 10.18554688 9.69287109 C8.49305733 8.46942419 6.80791711 7.23656936 5.125 6 C4.13757813 5.278125 3.15015625 4.55625 2.1328125 3.8125 C1.07707031 2.9153125 1.07707031 2.9153125 0 2 C0 1.34 0 0.68 0 0 Z " fill="#133E49" transform="translate(643,416)"/>
<path d="M0 0 C0.33 0 0.66 0 1 0 C1.1539615 28.93739324 1.30199309 57.87481155 1.4429636 86.81227112 C1.45601428 89.48698944 1.46908721 92.16170765 1.48217773 94.83642578 C1.48543066 95.50123439 1.48868358 96.166043 1.49203508 96.85099733 C1.54478273 107.60914212 1.60119147 118.36726474 1.6589582 129.12538362 C1.71817027 140.16788589 1.7733589 151.21040303 1.82505554 162.25294304 C1.8542126 168.45380264 1.88519364 174.65464105 1.92053413 180.85546875 C1.95374564 186.69283611 1.98208635 192.53020693 2.00670624 198.36761665 C2.01659349 200.50896673 2.02825384 202.65030947 2.04183006 204.79163933 C2.06011942 207.71843433 2.07198934 210.64518901 2.08229065 213.57202148 C2.08909444 214.41640022 2.09589823 215.26077896 2.10290819 216.13074493 C2.11240366 221.17467543 1.8875902 226.02655506 1 231 C0.34 231.33 -0.32 231.66 -1 232 C-1.02279008 202.5889891 -1.04049803 173.17797881 -1.05106533 143.76696089 C-1.0523161 140.29833524 -1.05361042 136.82970961 -1.05493164 133.36108398 C-1.05519395 132.67051428 -1.05545626 131.97994458 -1.05572652 131.26844852 C-1.06008327 120.07233082 -1.06797084 108.87621822 -1.0771528 97.68010355 C-1.0864892 86.20030266 -1.09198068 74.72050593 -1.09408849 63.24070114 C-1.09539604 56.78912507 -1.09848463 50.3375606 -1.10573006 43.88598824 C-1.11248625 37.82126818 -1.11461778 31.75656459 -1.11310768 25.69184113 C-1.11338419 23.45886839 -1.11539168 21.22589514 -1.11920547 18.99292564 C-1.12413646 15.95856573 -1.1230005 12.92426903 -1.12025452 9.88990784 C-1.12316736 8.99401162 -1.1260802 8.09811541 -1.12908131 7.17507082 C-1.11412121 1.11412121 -1.11412121 1.11412121 0 0 Z " fill="#07242C" transform="translate(699,435)"/>
<path d="M0 0 C11.29202524 0.89147568 19.95474981 8.25354815 27 16.5 C37.06333091 29.44697544 40.30772564 42.78645033 39 59 C36.71053712 71.70141509 30.02639223 85.52265065 22.421875 95.9453125 C20.83996217 98.16171337 20.83996217 98.16171337 19.12890625 101.34375 C17.1110014 104.92193961 14.73325526 108.15705094 12.1875 111.375 C11.3032964 112.50383653 10.41918229 113.63274316 9.53515625 114.76171875 C9.10477051 115.30876465 8.67438477 115.85581055 8.23095703 116.41943359 C7.11295753 117.85496092 6.02168367 119.31120279 4.93359375 120.76953125 C4.33675781 121.56746094 3.73992188 122.36539063 3.125 123.1875 C2.61195313 123.88230469 2.09890625 124.57710937 1.5703125 125.29296875 C-0.14133518 127.15364048 -1.6859376 128.02328535 -4 129 C-1.03694536 124.35339158 2.01695027 119.91054331 5.5625 115.6875 C15.76410005 103.09704159 24.57851129 88.88828333 31 74 C31.268125 73.38350586 31.53625 72.76701172 31.8125 72.13183594 C37.33989643 58.98354168 38.11926263 45.49616234 33.328125 32 C27.31149585 18.40949651 18.21310103 9.21915994 4.5 3.6875 C3.00298571 3.11710148 1.5040141 2.5516773 0 2 C0 1.34 0 0.68 0 0 Z " fill="#164149" transform="translate(620,479)"/>
<path d="M0 0 C33.66 0 67.32 0 102 0 C99.32228365 2.67771635 97.30891617 2.23186616 93.66998291 2.23773193 C92.78107361 2.22897034 91.89216431 2.22020874 90.97631836 2.21118164 C90.04128983 2.2098674 89.10626129 2.20855316 88.14289856 2.2071991 C85.04177872 2.20068994 81.94090275 2.18025079 78.83984375 2.16015625 C76.69275683 2.15388951 74.54566668 2.14864821 72.39857483 2.14439392 C66.73866514 2.13106782 61.07886259 2.10662141 55.41900635 2.07904053 C46.3548618 2.03597706 37.29068762 2.00627552 28.22647285 1.9829998 C25.05051387 1.97273116 21.8746405 1.95568571 18.69871521 1.93800354 C16.76390663 1.9311791 14.82909728 1.92457029 12.89428711 1.91821289 C12.00335358 1.91147552 11.11242004 1.90473816 10.19448853 1.89779663 C8.12938164 1.89391444 6.06427418 1.94123233 4 2 C1.68187616 4.31812384 2.53922272 9.95564046 2.37890625 13.09375 C2.25386719 14.0528125 2.12882812 15.011875 2 16 C1.34 16.33 0.68 16.66 0 17 C0 11.39 0 5.78 0 0 Z " fill="#241538" transform="translate(411,610)"/>
<path d="M0 0 C3.16025526 1.80586015 4.57721965 2.82922364 5.8125 6.25 C5.874375 6.8275 5.93625 7.405 6 8 C5.01 8 4.02 8 3 8 C1.97971135 6.68212715 0.98028616 5.34789347 0 4 C-0.99 3.67 -1.98 3.34 -3 3 C-3 2.34 -3 1.68 -3 1 C-7.8974257 2.07504467 -11.08805935 4.09099669 -14.50345039 7.64354134 C-17.60355902 12.5249551 -16.95452183 18.22539497 -16.88647461 23.82983398 C-16.89437129 25.22988353 -16.90533776 26.62991859 -16.91912842 28.02992249 C-16.94777118 31.81492536 -16.93366269 35.59868672 -16.91168666 39.38368869 C-16.89602065 43.34492294 -16.91993434 47.30591702 -16.93959045 51.2671051 C-16.97079322 58.76103394 -16.96657009 66.25450432 -16.94951588 73.74846178 C-16.93182613 82.28301721 -16.9537863 90.8173279 -16.97902286 99.35184753 C-17.03003117 116.90133065 -17.03142316 134.45047484 -17 152 C-17.33 152 -17.66 152 -18 152 C-18.14023973 133.34573015 -18.246005 114.69156746 -18.31087303 96.03687954 C-18.34179472 87.37491152 -18.38394259 78.71327128 -18.45263672 70.05151367 C-18.51249088 62.5007952 -18.55116143 54.95031413 -18.56453097 47.39936501 C-18.57234473 43.40205208 -18.59067227 39.40541827 -18.63438034 35.40832329 C-18.67521736 31.64315074 -18.68764727 27.87893461 -18.67864609 24.11356163 C-18.68029185 22.73448736 -18.69216234 21.35537992 -18.71523285 19.97649765 C-18.90133903 8.27574679 -18.90133903 8.27574679 -15.08242798 3.68666077 C-10.58522955 -0.67508356 -6.06228923 -0.6958288 0 0 Z " fill="#9157BB" transform="translate(398,478)"/>
<path d="M0 0 C0.99 0.495 0.99 0.495 2 1 C-1.62993035 4.83462567 -5.41116947 7.88135502 -9.75 10.875 C-14.7294555 14.35493439 -19.5519986 17.93798736 -24.23046875 21.8203125 C-26 23 -26 23 -29 23 C-29.495 24.485 -29.495 24.485 -30 26 C-33 28 -33 28 -36 28 C-36.495 29.485 -36.495 29.485 -37 31 C-38.5234375 32.38671875 -38.5234375 32.38671875 -40.375 33.6875 C-40.98085938 34.12449219 -41.58671875 34.56148438 -42.2109375 35.01171875 C-44 36 -44 36 -47 36 C-47.33 36.99 -47.66 37.98 -48 39 C-48.99 39 -49.98 39 -51 39 C-51.33 39.99 -51.66 40.98 -52 42 C-53.30445301 42.92684819 -54.62071986 43.83995393 -55.98046875 44.68359375 C-59.62586786 47.05980168 -63.04499514 49.76301153 -66.51171875 52.390625 C-69 54 -69 54 -72 54 C-72 54.66 -72 55.32 -72 56 C-75.75899378 59.51647805 -79.71223057 62.66951441 -85 63 C-81.12846254 58.86636619 -76.97250095 55.69989237 -72.3125 52.5 C-70.78582443 51.43710783 -69.25980389 50.37327433 -67.734375 49.30859375 C-66.5597168 48.49044189 -66.5597168 48.49044189 -65.36132812 47.65576172 C-61.56775055 44.99570763 -57.81434706 42.28095583 -54.0625 39.5625 C-52.94452026 38.75329102 -52.94452026 38.75329102 -51.80395508 37.92773438 C-50.29113717 36.8324757 -48.77852326 35.73693519 -47.26611328 34.64111328 C-44.26130721 32.46504062 -41.2536092 30.29298736 -38.24560547 28.12133789 C-36.75350367 27.04403325 -35.26164001 25.9663987 -33.77001953 24.88842773 C-29.91155044 22.10016326 -26.05002326 19.31628007 -22.18359375 16.5390625 C-10.94258223 8.4685404 -10.94258223 8.4685404 0 0 Z " fill="#092934" transform="translate(464,352)"/>
<path d="M0 0 C3.72975427 1.15283314 5.35163561 1.75988138 7.4375 5.0625 C7.4375 8.99191056 6.99334616 11.2596111 4.75 14.5 C1.66016708 16.58772494 0.0994192 16.7350974 -3.5625 16.0625 C-6.88524404 13.60655875 -8.33868008 12.1368356 -9.1875 8.0625 C-8.06449489 2.67207546 -5.55537361 0.09746269 0 0 Z " fill="#491735" transform="translate(511.5625,428.9375)"/>
<path d="M0 0 C0.99 0.33 1.98 0.66 3 1 C5.07344915 1.08756199 7.14968833 1.11322365 9.22497559 1.10679626 C10.52895798 1.10528061 11.83294037 1.10376495 13.17643738 1.10220337 C14.62478673 1.09547443 16.07313572 1.08866634 17.52148438 1.08178711 C19.0441325 1.0782315 20.56678179 1.07514537 22.08943176 1.07249451 C25.36992259 1.06594007 28.65038626 1.05637846 31.93086243 1.04459953 C37.11548269 1.02632975 42.3000963 1.01671408 47.48474121 1.00868225 C62.22830093 0.9845123 76.97182035 0.94861466 91.71533203 0.90405273 C99.85676192 0.87952203 107.99817604 0.8621498 116.13963747 0.85249335 C121.29625699 0.84594087 126.45274682 0.83036226 131.60932159 0.80817592 C134.81399626 0.79646575 138.01863913 0.79307969 141.22333336 0.79207802 C142.712088 0.78992616 144.20084215 0.78431951 145.68956947 0.7750473 C147.71802022 0.7629001 149.74653831 0.76419132 151.77502441 0.76622009 C152.91138588 0.76307769 154.04774734 0.75993528 155.21854401 0.75669765 C158 1 158 1 161 3 C107.87 3 54.74 3 0 3 C0 2.01 0 1.02 0 0 Z " fill="#4E2B71" transform="translate(405,580)"/>
<path d="M0 0 C5.36648069 0.40957485 8.88251156 3.47466895 13.0625 6.5625 C19.25876275 11.12785375 19.25876275 11.12785375 25.74609375 15.2578125 C33.32071076 19.74984227 33.32071076 19.74984227 35.19921875 23.20703125 C35.97483498 26.84932507 35.51726566 29.04900227 33.7421875 32.3125 C30.77071438 36.18232546 29.01165561 37.72767101 24.18359375 39.02734375 C20.0090012 39.38681313 17.8616507 38.11485596 14.67578125 35.53320312 C14.12277344 35.04787109 13.56976562 34.56253906 13 34.0625 C12.41605469 33.58103516 11.83210937 33.09957031 11.23046875 32.60351562 C9.80359492 31.42225122 8.39933929 30.21375618 7 29 C7.33 28.34 7.66 27.68 8 27 C9.32064453 27.99193359 9.32064453 27.99193359 10.66796875 29.00390625 C11.84057115 29.8575608 13.01378044 30.71038213 14.1875 31.5625 C14.76564453 32.00013672 15.34378906 32.43777344 15.93945312 32.88867188 C18.64323572 34.82867408 20.3711143 36.01516462 23.75390625 35.93359375 C26.91179459 34.6210106 28.73532244 32.5163084 31 30 C31.33 29.67 31.66 29.34 32 29 C32.67083418 26.70030673 32.67083418 26.70030673 32 24 C29.94059554 21.75821881 27.49080359 20.10806948 25 18.375 C24.28972656 17.86155029 23.57945312 17.34810059 22.84765625 16.8190918 C16.9339379 12.57152981 10.92610667 8.44526904 4.87890625 4.39013672 C3.23656116 3.28353649 1.61569173 2.14516448 0 1 C0 0.67 0 0.34 0 0 Z " fill="#19283C" transform="translate(529,311)"/>
<path d="M0 0 C0.495 1.485 0.495 1.485 1 3 C-3.60866104 11.69667836 -12.28668836 20.09143169 -21.6015625 23.203125 C-22.93904417 23.56587402 -24.28045349 23.91438303 -25.625 24.25 C-26.32633057 24.42619873 -27.02766113 24.60239746 -27.75024414 24.78393555 C-33.61378186 26.13809047 -39.08615178 26.39219365 -45 25 C-45.33 24.67 -45.66 24.34 -46 24 C-47.175625 23.9175 -48.35125 23.835 -49.5625 23.75 C-54.54791402 23.2181023 -58.00136859 20.88199232 -62 18 C-61.67 17.34 -61.34 16.68 -61 16 C-60.28585937 16.46019531 -59.57171875 16.92039062 -58.8359375 17.39453125 C-49.09797322 22.90734574 -36.14566781 23.83342792 -25.4375 21.0859375 C-14.39121994 17.12257313 -5.36890924 10.73781847 0 0 Z " fill="#3D1C36" transform="translate(553,453)"/>
<path d="M0 0 C11.29202524 0.89147568 19.95474981 8.25354815 27 16.5 C34.09051037 25.62229405 39.22119416 35.63163229 39.0625 47.375 C39.05347656 48.24898437 39.04445313 49.12296875 39.03515625 50.0234375 C39.02355469 50.67570313 39.01195312 51.32796875 39 52 C38.67 52 38.34 52 38 52 C37.84144531 51.05640625 37.68289063 50.1128125 37.51953125 49.140625 C34.5503696 32.80203383 28.9278207 19.00906111 15 9 C10.17737274 6.21998398 5.17571251 4.031674 0 2 C0 1.34 0 0.68 0 0 Z " fill="#11323A" transform="translate(620,479)"/>
<path d="M0 0 C8.27971945 5.04357131 16.25834157 10.49403994 23.8659668 16.50927734 C26.04184429 18.12218138 26.04184429 18.12218138 28.89379883 19.33837891 C32.49665328 21.24322972 34.54922274 22.71328003 37 26 C38.85884942 33.27109888 38.02841123 41.08064897 37.6875 48.5 C37.63227824 50.58320459 37.58209595 52.66654925 37.53710938 54.75 C37.41632587 59.83680703 37.22681252 64.91686177 37 70 C36.67 70 36.34 70 36 70 C36 55.81 36 41.62 36 27 C34.68 26.34 33.36 25.68 32 25 C25.16323107 20.5834096 18.59421324 15.76772084 12 11 C11.1018457 10.35297119 11.1018457 10.35297119 10.18554688 9.69287109 C8.49305733 8.46942419 6.80791711 7.23656936 5.125 6 C4.13757813 5.278125 3.15015625 4.55625 2.1328125 3.8125 C1.42898438 3.214375 0.72515625 2.61625 0 2 C0 1.34 0 0.68 0 0 Z " fill="#051C24" transform="translate(643,416)"/>
<path d="M0 0 C0.33 0.99 0.66 1.98 1 3 C0.02208496 3.73879395 -0.95583008 4.47758789 -1.96337891 5.23876953 C-5.75780931 9.06276004 -5.68200237 12.55696991 -5.67977905 17.76046753 C-5.64881134 18.88881012 -5.61784363 20.01715271 -5.5859375 21.1796875 C-5.57744781 22.3475882 -5.56895813 23.51548889 -5.56021118 24.71878052 C-5.52670159 28.43846998 -5.45141845 32.15596894 -5.375 35.875 C-5.34489762 38.4010103 -5.31752231 40.92705467 -5.29296875 43.453125 C-5.22691787 49.63616041 -5.12659052 55.8179237 -5 62 C-5.99 62.495 -5.99 62.495 -7 63 C-7.16240135 55.52443489 -7.28667246 48.04925172 -7.3626852 40.57227802 C-7.39917445 37.10004053 -7.4486361 33.6290122 -7.52807617 30.1574707 C-7.61889696 26.16345835 -7.65268816 22.17070978 -7.68359375 18.17578125 C-7.71972275 16.93290848 -7.75585175 15.69003571 -7.79307556 14.40950012 C-7.79692587 5.95594434 -7.79692587 5.95594434 -5.39505005 3.07479858 C-3.45727539 1.67651367 -3.45727539 1.67651367 0 0 Z " fill="#07202C" transform="translate(348,436)"/>
<path d="M0 0 C-1.40424009 2.80848017 -3.10864198 2.92414585 -6 4 C-6.721875 4.37125 -7.44375 4.7425 -8.1875 5.125 C-10 6 -10 6 -12 6 C-12.33 6.99 -12.66 7.98 -13 9 C-15.01171875 10.69140625 -15.01171875 10.69140625 -17.6875 12.5625 C-19.16283203 13.60470703 -19.16283203 13.60470703 -20.66796875 14.66796875 C-21.20212402 15.04099121 -21.7362793 15.41401367 -22.28662109 15.79833984 C-24.1125594 17.07894234 -25.92642777 18.37533426 -27.73828125 19.67578125 C-37.20887084 26.47258056 -37.20887084 26.47258056 -41 29 C-41.99 28.67 -42.98 28.34 -44 28 C-43.53851563 27.6690332 -43.07703125 27.33806641 -42.6015625 26.99707031 C-33.39637123 20.38879812 -24.22765919 13.74408077 -15.21679688 6.87207031 C-5.52739579 -0.47377678 -5.52739579 -0.47377678 0 0 Z " fill="#0E303E" transform="translate(510,323)"/>
<path d="M0 0 C0.99 0.66 1.98 1.32 3 2 C2.25556641 2.56654297 2.25556641 2.56654297 1.49609375 3.14453125 C-9.20013536 11.81111537 -14.86713252 23.32262352 -16.4609375 36.9375 C-16.71129319 40.29361958 -16.89914204 43.6363869 -17 47 C-17.66 47 -18.32 47 -19 47 C-19.61246715 36.91130505 -17.95199884 28.52810341 -15 19 C-14.34 19 -13.68 19 -13 19 C-12.9175 18.484375 -12.835 17.96875 -12.75 17.4375 C-10.80322966 11.11049639 -7.60077142 7.25756225 -2.48828125 3.26171875 C-0.86115804 2.04986163 -0.86115804 2.04986163 0 0 Z " fill="#273752" transform="translate(572,488)"/>
<path d="M0 0 C0.99 0.33 1.98 0.66 3 1 C1.9584375 1.72703125 0.916875 2.4540625 -0.15625 3.203125 C-7.65484972 8.45708389 -15.08557384 13.77112069 -22.375 19.3125 C-28.39636172 23.88471278 -34.5162111 28.09873719 -41 32 C-39.48281505 27.69474141 -36.24838263 25.76141021 -32.625 23.3125 C-31.34674773 22.42578742 -30.06941886 21.53774238 -28.79296875 20.6484375 C-28.15278809 20.20467773 -27.51260742 19.76091797 -26.85302734 19.30371094 C-24.16516898 17.41264853 -21.55255432 15.42759475 -18.9375 13.4375 C-14.63554816 10.20525393 -10.31731513 7.00081522 -5.9375 3.875 C-4.87402344 3.10929687 -3.81054688 2.34359375 -2.71484375 1.5546875 C-1.81894531 1.04164063 -0.92304688 0.52859375 0 0 Z " fill="#072731" transform="translate(433,351)"/>
<path d="M0 0 C-1.875 1.0625 -1.875 1.0625 -4 2 C-4.66 1.67 -5.32 1.34 -6 1 C-6 1.66 -6 2.32 -6 3 C-7.32 3 -8.64 3 -10 3 C-9.814375 3.5775 -9.62875 4.155 -9.4375 4.75 C-8.95976454 7.20692525 -9.24270636 8.64397534 -10 11 C-10.66 11 -11.32 11 -12 11 C-12.04125 11.556875 -12.0825 12.11375 -12.125 12.6875 C-13.63200721 16.67030477 -17.25984712 19.12992356 -21 21 C-23.3329866 21.04022391 -25.66706666 21.04320247 -28 21 C-28 20.34 -28 19.68 -28 19 C-26.783125 18.773125 -25.56625 18.54625 -24.3125 18.3125 C-18.7552046 16.93547105 -16.11286283 13.66929425 -13 9 C-12.54605448 6.72087062 -12.54605448 6.72087062 -12.375 4.3125 C-12.30023437 3.50425781 -12.22546875 2.69601562 -12.1484375 1.86328125 C-12.09945312 1.24839844 -12.05046875 0.63351562 -12 0 C-10.37585622 -0.19477739 -8.75063577 -0.38059458 -7.125 -0.5625 C-6.22007812 -0.66691406 -5.31515625 -0.77132813 -4.3828125 -0.87890625 C-2 -1 -2 -1 0 0 Z " fill="#421C38" transform="translate(621,383)"/>
<path d="M0 0 C0 3 0 3 -1.32873535 4.6894989 C-1.95050659 5.30460831 -2.57227783 5.91971771 -3.21289062 6.5534668 C-3.91361694 7.25396652 -4.61434326 7.95446625 -5.33630371 8.67619324 C-6.10188599 9.42629166 -6.86746826 10.17639008 -7.65625 10.94921875 C-8.43311157 11.72183548 -9.20997314 12.49445221 -10.01037598 13.29048157 C-12.49998527 15.76326115 -14.99980958 18.2254237 -17.5 20.6875 C-19.18687966 22.35933845 -20.87308657 24.03185599 -22.55859375 25.70507812 C-26.69794714 29.81130525 -30.84574107 33.90885641 -35 38 C-35.99 37.67 -36.98 37.34 -38 37 C-37.59499268 36.62528564 -37.18998535 36.25057129 -36.77270508 35.86450195 C-24.20681637 24.20855088 -12.05938973 12.17481607 0 0 Z " fill="#E561B9" transform="translate(567,355)"/>
<path d="M0 0 C0.88365234 0.00451172 1.76730469 0.00902344 2.67773438 0.01367188 C4.84768559 0.02540134 7.01760172 0.04333505 9.1875 0.0625 C9.6825 1.0525 9.6825 1.0525 10.1875 2.0625 C8.93195312 2.09988281 7.67640625 2.13726562 6.3828125 2.17578125 C-7.69873621 2.68653287 -17.52919475 4.84664197 -29.8125 12.0625 C-29.8125 11.0725 -29.8125 10.0825 -29.8125 9.0625 C-21.12037992 1.65726523 -11.01077681 -0.10674131 0 0 Z " fill="#1B3746" transform="translate(604.8125,476.9375)"/>
<path d="M0 0 C0.99 0.33 1.98 0.66 3 1 C0.6139174 3.48550271 -1.88065508 5.76809985 -4.5 8 C-8.20927136 11.2473621 -11.82400416 14.58115407 -15.375 18 C-16.16100586 18.72896484 -16.16100586 18.72896484 -16.96289062 19.47265625 C-20.73091713 23.15716718 -21.95987436 25.9873463 -23 31 C-24.21941141 28.99155768 -25.03187206 27.60424116 -24.90625 25.22265625 C-23.5337322 21.85643803 -21.01413336 19.6611928 -18.4375 17.1875 C-17.89609375 16.65705078 -17.3546875 16.12660156 -16.796875 15.58007812 C-13.17974964 12.06175785 -9.46627851 8.67543315 -5.625 5.40234375 C-3.64902936 3.69711909 -1.80707351 1.88236824 0 0 Z " fill="#481A37" transform="translate(580,392)"/>
<path d="M0 0 C0.66 0.33 1.32 0.66 2 1 C1.52949219 1.60585938 1.05898438 2.21171875 0.57421875 2.8359375 C-7.56961006 13.79554149 -8.52372392 23.7628096 -9 37 C-9.66 37 -10.32 37 -11 37 C-11.76559236 17.28599682 -11.76559236 17.28599682 -7 10 C-6.48308594 9.17628906 -5.96617187 8.35257812 -5.43359375 7.50390625 C-1.63191372 1.63191372 -1.63191372 1.63191372 0 0 Z " fill="#331327" transform="translate(482,404)"/>
<path d="M0 0 C2 2 2 2 2.21118164 3.86010742 C2.19434326 4.60107666 2.17750488 5.3420459 2.16015625 6.10546875 C2.14919922 6.92466797 2.13824219 7.74386719 2.12695312 8.58789062 C2.10568359 9.44576172 2.08441406 10.30363281 2.0625 11.1875 C1.94309151 16.94122043 2.12509649 22.29161313 3 28 C2.71269945 30.33944736 2.38063221 32.6739143 2 35 C1.96364237 36.9996695 1.95123402 39.00059462 2 41 C1.01 41.495 1.01 41.495 0 42 C0 28.14 0 14.28 0 0 Z " fill="#13172B" transform="translate(655,356)"/>
<path d="M0 0 C0.66 0.99 1.32 1.98 2 3 C0.93860285 7.48145462 -1.41677163 10.19573432 -5 13 C-11.56280655 14.66467849 -11.56280655 14.66467849 -14.86767578 13.13623047 C-16.68213112 11.87029622 -18.33738479 10.52164831 -20 9.0625 C-20.87591797 8.34030273 -20.87591797 8.34030273 -21.76953125 7.60351562 C-23.19640508 6.42225122 -24.60066071 5.21375618 -26 4 C-25.67 3.34 -25.34 2.68 -25 2 C-24.11957031 2.66128906 -23.23914063 3.32257813 -22.33203125 4.00390625 C-21.15942885 4.8575608 -19.98621956 5.71038213 -18.8125 6.5625 C-17.9452832 7.21895508 -17.9452832 7.21895508 -17.06054688 7.88867188 C-14.3501042 9.83345277 -12.63411984 11.01886192 -9.2421875 10.91796875 C-5.0210266 9.18979312 -2.58695202 6.25775433 -0.6875 2.1875 C-0.460625 1.465625 -0.23375 0.74375 0 0 Z " fill="#28213C" transform="translate(562,336)"/>
<path d="M0 0 C0.33 0 0.66 0 1 0 C2.87488474 13.59291435 -0.08853564 23.83118773 -6 36 C-6.66 35.67 -7.32 35.34 -8 35 C-6.96826304 31.85200259 -5.89994591 28.73069554 -4.74609375 25.625 C-1.60132398 16.91351837 -0.15818627 9.3329901 0 0 Z " fill="#184D55" transform="translate(657,524)"/>
<path d="M0 0 C3.16025526 1.80586015 4.57721965 2.82922364 5.8125 6.25 C5.874375 6.8275 5.93625 7.405 6 8 C5.01 8 4.02 8 3 8 C1.97971135 6.68212715 0.98028616 5.34789347 0 4 C-0.99 3.67 -1.98 3.34 -3 3 C-3 2.34 -3 1.68 -3 1 C-8.98808129 2.31445687 -12.03429323 5.61191026 -16 10 C-16.33 9.01 -16.66 8.02 -17 7 C-11.87903666 0.07977927 -8.37309602 -0.96106291 0 0 Z " fill="#9B5AC3" transform="translate(398,478)"/>
<path d="M0 0 C0 0.99 0 1.98 0 3 C-0.54140625 2.83757812 -1.0828125 2.67515625 -1.640625 2.5078125 C-8.85888294 0.95421394 -16.76333184 1.88666644 -24 3 C-23.67 2.01 -23.34 1.02 -23 0 C-16.08655329 -3.45672336 -6.98592742 -3.02094159 0 0 Z " fill="#4F1C3B" transform="translate(525,402)"/>
<path d="M0 0 C-0.33 0.99 -0.66 1.98 -1 3 C-1.54269531 2.72285156 -2.08539062 2.44570313 -2.64453125 2.16015625 C-3.35996094 1.79792969 -4.07539062 1.43570312 -4.8125 1.0625 C-5.52019531 0.70285156 -6.22789062 0.34320313 -6.95703125 -0.02734375 C-10.89532839 -1.90236476 -13.99191842 -2.13496674 -18.3125 -2.125 C-19.42238281 -2.12757813 -20.53226562 -2.13015625 -21.67578125 -2.1328125 C-24.86801125 -2.00527335 -27.86508827 -1.59757773 -31 -1 C-31 -1.66 -31 -2.32 -31 -3 C-19.82301742 -7.15383382 -10.42299657 -5.25844872 0 0 Z " fill="#05242B" transform="translate(529,308)"/>
<path d="M0 0 C0.99 0.33 1.98 0.66 3 1 C-0.68675908 5.53654397 -4.40586869 9.38334344 -9 13 C-9.94875 13.763125 -10.8975 14.52625 -11.875 15.3125 C-12.57625 15.869375 -13.2775 16.42625 -14 17 C-14.66 16.67 -15.32 16.34 -16 16 C-10.72 10.72 -5.44 5.44 0 0 Z " fill="#4C1D3D" transform="translate(596,340)"/>
<path d="M0 0 C0.5775 0.226875 1.155 0.45375 1.75 0.6875 C1.09 0.6875 0.43 0.6875 -0.25 0.6875 C-0.63478516 1.56728516 -0.63478516 1.56728516 -1.02734375 2.46484375 C-2.35186322 4.87267627 -3.84327156 6.34654954 -5.8125 8.25 C-10.10386589 12.95981858 -10.32957421 17.50344695 -10.25 23.6875 C-10.58 23.6875 -10.91 23.6875 -11.25 23.6875 C-11.30418326 21.60445462 -11.34287551 19.52100232 -11.375 17.4375 C-11.39820313 16.27734375 -11.42140625 15.1171875 -11.4453125 13.921875 C-11.2603949 10.85963954 -10.85823023 9.24547249 -9.25 6.6875 C-8.59 6.6875 -7.93 6.6875 -7.25 6.6875 C-7.1675 6.089375 -7.085 5.49125 -7 4.875 C-5.80068447 1.37699637 -3.78021176 -0.52502941 0 0 Z " fill="#A350CE" transform="translate(425.25,516.3125)"/>
<path d="M0 0 C0.74378906 -0.01417969 1.48757813 -0.02835937 2.25390625 -0.04296875 C4.70135664 0.21534891 6.31655958 0.97072466 8.4375 2.1875 C7.22126953 2.22617187 7.22126953 2.22617187 5.98046875 2.265625 C-4.20630434 2.78741547 -12.62698466 5.35749171 -21.5625 10.1875 C-20.10913682 6.37952609 -18.38341882 5.22682723 -14.75 3.5 C-13.47189453 2.87544922 -13.47189453 2.87544922 -12.16796875 2.23828125 C-8.13271193 0.61086883 -4.33369962 0.03768434 0 0 Z " fill="#38172E" transform="translate(511.5625,388.8125)"/>
<path d="M0 0 C0.99 0.33 1.98 0.66 3 1 C-8.2704918 12.43954918 -8.2704918 12.43954918 -13.5 17.3125 C-14.0878125 17.86550781 -14.675625 18.41851562 -15.28125 18.98828125 C-17 20 -17 20 -19.21875 19.66796875 C-19.8065625 19.44753906 -20.394375 19.22710937 -21 19 C-20.195625 18.525625 -19.39125 18.05125 -18.5625 17.5625 C-13.77634142 14.38684975 -9.9748853 10.10664945 -6 6 C-5.00236127 4.9976443 -4.00290274 3.99708881 -3 3 C-2.34 2.34 -1.68 1.68 -1 1 C-0.67 0.67 -0.34 0.34 0 0 Z " fill="#471D3A" transform="translate(546,373)"/>
<path d="M0 0 C6.56731434 4.00046383 12.86538085 8.26475298 19.0625 12.8125 C19.71742432 13.29243408 20.37234863 13.77236816 21.04711914 14.2668457 C23.49728483 16.07870325 25.84203966 17.84203966 28 20 C23.93646291 20 22.36479905 18.40413024 19.0625 16.0625 C18.49635986 15.661521 17.93021973 15.26054199 17.34692383 14.84741211 C15.55801877 13.57387441 13.77842369 12.28812418 12 11 C11.41250977 10.57847656 10.82501953 10.15695312 10.21972656 9.72265625 C8.53575124 8.5113261 6.86006658 7.28952137 5.1875 6.0625 C4.19105469 5.33160156 3.19460938 4.60070312 2.16796875 3.84765625 C1.45253906 3.23792969 0.73710938 2.62820313 0 2 C0 1.34 0 0.68 0 0 Z " fill="#123240" transform="translate(643,416)"/>
<path d="M0 0 C0.99 0.33 1.98 0.66 3 1 C0.15010742 3.08922903 -2.70566465 5.17027731 -5.5625 7.25 C-6.36236328 7.83652344 -7.16222656 8.42304688 -7.98632812 9.02734375 C-12.52782358 12.32687922 -17.06444116 15.32353588 -22 18 C-20.60786351 14.68224569 -19.14309778 13.08286502 -16.19140625 11.0546875 C-15.44439453 10.53519531 -14.69738281 10.01570313 -13.92773438 9.48046875 C-13.14720703 8.95066406 -12.36667969 8.42085938 -11.5625 7.875 C-10.78583984 7.33746094 -10.00917969 6.79992187 -9.20898438 6.24609375 C-6.15644914 4.13745184 -3.08695091 2.05796727 0 0 Z " fill="#072831" transform="translate(386,385)"/>
<path d="M0 0 C0 0.99 0 1.98 0 3 C-3.05371738 6.05371738 -6.70293287 5.54953331 -10.8125 5.75 C-11.62009766 5.80542969 -12.42769531 5.86085938 -13.25976562 5.91796875 C-17.68205967 6.15701167 -20.97158643 6.12451832 -25 4 C-25 3.67 -25 3.34 -25 3 C-24.31373535 2.98018066 -23.6274707 2.96036133 -22.92041016 2.93994141 C-19.82154221 2.84489055 -16.72336706 2.73513153 -13.625 2.625 C-12.54476563 2.5940625 -11.46453125 2.563125 -10.3515625 2.53125 C-9.3203125 2.49257813 -8.2890625 2.45390625 -7.2265625 2.4140625 C-6.27346191 2.3826416 -5.32036133 2.3512207 -4.33837891 2.31884766 C-1.81104824 2.21444204 -1.81104824 2.21444204 0 0 Z " fill="#30264A" transform="translate(409,630)"/>
<path d="M0 0 C0.66 0 1.32 0 2 0 C2.41732107 8.79851917 2.71248522 16.23702211 -2 24 C-2.66 24 -3.32 24 -4 24 C-3.79503906 23.27296875 -3.59007812 22.5459375 -3.37890625 21.796875 C-1.42795109 14.51579832 -0.38686613 7.52387929 0 0 Z " fill="#3B172E" transform="translate(558,428)"/>
<path d="M0 0 C0.73046875 1.7421875 0.73046875 1.7421875 1 4 C-0.51171875 6.0703125 -0.51171875 6.0703125 -2.6875 8.125 C-3.74517578 9.14980469 -3.74517578 9.14980469 -4.82421875 10.1953125 C-8.36679788 13.13368155 -10.94640981 14.28124257 -15.5625 14.25 C-16.70912109 14.25773438 -16.70912109 14.25773438 -17.87890625 14.265625 C-20 14 -20 14 -23 12 C-22.13117188 11.90203125 -21.26234375 11.8040625 -20.3671875 11.703125 C-10.37076821 10.55582024 -10.37076821 10.55582024 -2.76171875 4.40625 C-1.78084154 2.97706808 -0.8818322 1.49233141 0 0 Z " fill="#3C1E56" transform="translate(450,540)"/>
<path d="M0 0 C0 0.33 0 0.66 0 1 C-1.85625 1.1546875 -1.85625 1.1546875 -3.75 1.3125 C-7.40117859 1.61676488 -9.18899719 2.67594256 -12 5 C-12.66 5.48339844 -13.32 5.96679688 -14 6.46484375 C-17.59078924 9.10884286 -20.96253957 11.70941787 -24 15 C-24.66 14.67 -25.32 14.34 -26 14 C-23.80389516 11.75997306 -21.59489718 9.5367466 -19.359375 7.3359375 C-18.02704596 6.01684352 -16.71049634 4.67979141 -15.453125 3.2890625 C-11.01331169 -1.22910046 -5.86198096 -0.4693757 0 0 Z " fill="#D652A5" transform="translate(617,318)"/>
<path d="M0 0 C0.33 0 0.66 0 1 0 C1.20504349 3.35324965 1.32818195 6.70487403 1.4375 10.0625 C1.49615234 11.00544922 1.55480469 11.94839844 1.61523438 12.91992188 C1.78524894 19.89051923 1.78524894 19.89051923 -0.58935547 23.24560547 C-2.31648619 24.97273619 -4.05337649 26.52741333 -6 28 C-5.34 30.31 -4.68 32.62 -4 35 C-5.65 33.68 -7.3 32.36 -9 31 C-8.44091661 27.4060313 -7.28192077 26.15488897 -4.49609375 23.90234375 C-0.67841131 20.24856896 -0.16206843 17.45348141 -0.02929688 12.27539062 C-0.04573242 10.93250977 -0.04573242 10.93250977 -0.0625 9.5625 C-0.04638672 8.64017578 -0.03027344 7.71785156 -0.01367188 6.76757812 C0.02141714 4.5101846 0.02524186 2.25738893 0 0 Z " fill="#4B1C3D" transform="translate(627,325)"/>
<path d="M0 0 C0.66 0.66 1.32 1.32 2 2 C1.23816406 2.68964844 0.47632813 3.37929688 -0.30859375 4.08984375 C-6.70539534 9.90370094 -12.95452164 15.8171244 -19 22 C-19 17.31004828 -15.93901243 15.02186646 -12.875 11.6875 C-11 10 -11 10 -9 10 C-8.74476563 9.40703125 -8.48953125 8.8140625 -8.2265625 8.203125 C-6.88183502 5.78775462 -5.50785633 4.48788294 -3.375 2.75 C-2.74335937 2.22921875 -2.11171875 1.7084375 -1.4609375 1.171875 C-0.73777344 0.59179688 -0.73777344 0.59179688 0 0 Z " fill="#351735" transform="translate(575,345)"/>
<path d="M0 0 C0.6290625 0.26554687 1.258125 0.53109375 1.90625 0.8046875 C11.04302719 4.57498411 19.13402286 6.31083248 29 7 C29 7.33 29 7.66 29 8 C8.1741683 9.0208741 8.1741683 9.0208741 1 3 C0.67 2.01 0.34 1.02 0 0 Z " fill="#4F1C3E" transform="translate(491,469)"/>
<path d="M0 0 C6.16460786 0.33481896 10.04310459 3.37801807 14.875 6.875 C16.050625 7.68904297 16.050625 7.68904297 17.25 8.51953125 C21.53011781 11.5693016 21.53011781 11.5693016 23 13 C23 13.99 23 14.98 23 16 C18.1597891 12.64755884 13.34357498 9.29306476 8.6875 5.6875 C5.91423086 3.57801536 3.36175293 2.05054779 0 1 C0 0.67 0 0.34 0 0 Z " fill="#172B3D" transform="translate(511,323)"/>
<path d="M0 0 C4.99417913 4.49476122 7.46146142 11.40290234 8 18 C8.06539935 21.33536698 8.05932475 24.66463061 8 28 C7.67 28 7.34 28 7 28 C6.82984375 27.03320312 6.6596875 26.06640625 6.484375 25.0703125 C5.19108563 18.02655287 3.75042469 11.51778921 0.76953125 4.953125 C0 3 0 3 0 0 Z " fill="#0E303A" transform="translate(651,503)"/>
<path d="M0 0 C0.99 0.33 1.98 0.66 3 1 C2.360625 1.61875 1.72125 2.2375 1.0625 2.875 C-3.14668062 7.07201536 -7.04656399 11.56422757 -11 16 C-11.33 15.34 -11.66 14.68 -12 14 C-8.59229902 8.45342287 -5.4733323 3.6488882 0 0 Z " fill="#471A34" transform="translate(497,405)"/>
<path d="M0 0 C0.66 0.33 1.32 0.66 2 1 C-1.74741602 4.94689824 -5.70774337 8.20387472 -10.125 11.375 C-10.74503906 11.83777344 -11.36507813 12.30054688 -12.00390625 12.77734375 C-13.61184709 13.93575274 -15.30212626 14.97793841 -17 16 C-17.99 15.67 -18.98 15.34 -20 15 C-19.14450562 14.37170288 -19.14450562 14.37170288 -18.27172852 13.73071289 C-15.70133567 11.84219142 -13.13190626 9.9523635 -10.5625 8.0625 C-9.66466797 7.40314453 -8.76683594 6.74378906 -7.84179688 6.06445312 C-6.98779297 5.43603516 -6.13378906 4.80761719 -5.25390625 4.16015625 C-4.46314697 3.57886963 -3.6723877 2.99758301 -2.85766602 2.39868164 C-1.08574745 1.13227114 -1.08574745 1.13227114 0 0 Z " fill="#0C2F3B" transform="translate(464,352)"/>
<path d="M0 0 C0.99 0.33 1.98 0.66 3 1 C2.03578125 1.68707031 1.0715625 2.37414062 0.078125 3.08203125 C-1.19793477 3.99216212 -2.47397543 4.90231978 -3.75 5.8125 C-4.70132812 6.49022461 -4.70132812 6.49022461 -5.671875 7.18164062 C-6.290625 7.62314453 -6.909375 8.06464844 -7.546875 8.51953125 C-8.14693359 8.9470166 -8.74699219 9.37450195 -9.36523438 9.81494141 C-10.70815663 10.78843971 -12.02252641 11.80120777 -13.328125 12.82421875 C-15 14 -15 14 -17 14 C-17 13.01 -17 12.02 -17 11 C-16.01 10.46375 -15.02 9.9275 -14 9.375 C-10.3313192 7.29035246 -7.02921031 4.85370938 -3.69921875 2.26953125 C-2 1 -2 1 0 0 Z " fill="#062028" transform="translate(491,309)"/>
<path d="M0 0 C4.86006514 0.47605901 7.49994025 1.71237392 11.25 4.8125 C12.10078125 5.49957031 12.9515625 6.18664062 13.828125 6.89453125 C15.873964 8.87781762 16.94221259 10.38491447 18 13 C5.50674616 5.16065265 5.50674616 5.16065265 0 1 C0 0.67 0 0.34 0 0 Z " fill="#0D2A36" transform="translate(657,404)"/>
<path d="M0 0 C0.66 0.33 1.32 0.66 2 1 C0.29657414 2.90044131 -1.41247117 4.79528874 -3.125 6.6875 C-3.599375 7.21794922 -4.07375 7.74839844 -4.5625 8.29492188 C-7.81499131 11.87705758 -11.22047225 14.97749932 -15 18 C-15.66 17.67 -16.32 17.34 -17 17 C-16.16855469 16.29423828 -16.16855469 16.29423828 -15.3203125 15.57421875 C-14.59585938 14.95160156 -13.87140625 14.32898438 -13.125 13.6875 C-12.40570312 13.07261719 -11.68640625 12.45773437 -10.9453125 11.82421875 C-8.80820669 9.9587676 -8.80820669 9.9587676 -7 7 C-6.34 7 -5.68 7 -5 7 C-4.731875 6.401875 -4.46375 5.80375 -4.1875 5.1875 C-3.01506533 3.02775192 -1.80630718 1.64209744 0 0 Z " fill="#CD51A6" transform="translate(585,337)"/>
<path d="M0 0 C3.28834617 2.79042625 5.12735689 6.47328176 7.1875 10.1875 C7.55552734 10.84169922 7.92355469 11.49589844 8.30273438 12.16992188 C9.2062466 13.77746961 10.1037241 15.38840651 11 17 C10.34 17.66 9.68 18.32 9 19 C7.49212623 16.40011448 5.99354539 13.79559803 4.5 11.1875 C4.07074219 10.44951172 3.64148438 9.71152344 3.19921875 8.95117188 C2.79316406 8.23896484 2.38710938 7.52675781 1.96875 6.79296875 C1.40317383 5.81106567 1.40317383 5.81106567 0.82617188 4.80932617 C0 3 0 3 0 0 Z " fill="#293A57" transform="translate(571,550)"/>
<path d="M0 0 C0.99 0.33 1.98 0.66 3 1 C2.34 1 1.68 1 1 1 C0.5978125 1.86625 0.5978125 1.86625 0.1875 2.75 C-1.02929189 5.05550043 -2.30333879 7.02056192 -4 9 C-4.66 9 -5.32 9 -6 9 C-6 12.63 -6 16.26 -6 20 C-6.33 20 -6.66 20 -7 20 C-7.86094685 8.34851933 -7.86094685 8.34851933 -4.625 3.8125 C-2 1 -2 1 0 0 Z " fill="#265967" transform="translate(596,516)"/>
<path d="M0 0 C0 0.66 0 1.32 0 2 C-0.65226562 2.06316406 -1.30453125 2.12632812 -1.9765625 2.19140625 C-7.05989949 2.90367323 -10.24011879 3.59731684 -13.625 7.625 C-14.44240889 8.73143745 -15.24404329 9.85069997 -16 11 C-16.33 10.01 -16.66 9.02 -17 8 C-12.24804619 1.15159598 -8.41329284 -0.32993305 0 0 Z " fill="#150F27" transform="translate(396,476)"/>
<path d="M0 0 C0.66 0.33 1.32 0.66 2 1 C0.39852104 3.10626032 -1.20604875 5.21003738 -2.8125 7.3125 C-3.26431641 7.90740234 -3.71613281 8.50230469 -4.18164062 9.11523438 C-6.31610234 11.90405661 -8.41080206 14.61724973 -11 17 C-11.66 16.67 -12.32 16.34 -13 16 C-8.71 10.72 -4.42 5.44 0 0 Z " fill="#15313A" transform="translate(629,591)"/>
<path d="M0 0 C4.98232221 1.27454754 7.70268484 3.04322181 11 7 C11.8125 9.3125 11.8125 9.3125 12 11 C12.66 11 13.32 11 14 11 C13.67 12.32 13.34 13.64 13 15 C12.34 14.01 11.68 13.02 11 12 C7.70171424 7.7441474 4.74843278 4.65353597 0 2 C0 1.34 0 0.68 0 0 Z " fill="#3C1C57" transform="translate(439,513)"/>
<path d="M0 0 C0.66 0 1.32 0 2 0 C3.1392374 3.4177122 2.98460383 5.05162246 1.9375 8.5625 C-0.34691999 12.6155032 -2.01560001 13.78644445 -6 16 C-6.33 15.34 -6.66 14.68 -7 14 C-6.360625 13.38125 -5.72125 12.7625 -5.0625 12.125 C-2.96116416 10.17402388 -2.96116416 10.17402388 -2 8 C-1.34 8 -0.68 8 0 8 C0 5.36 0 2.72 0 0 Z " fill="#422445" transform="translate(628,367)"/>
<path d="M0 0 C0.99 0.33 1.98 0.66 3 1 C4.62719482 1.08143855 6.25751719 1.1075302 7.88671875 1.09765625 C8.82451172 1.09443359 9.76230469 1.09121094 10.72851562 1.08789062 C12.19321289 1.07532227 12.19321289 1.07532227 13.6875 1.0625 C14.67556641 1.05798828 15.66363281 1.05347656 16.68164062 1.04882812 C19.12115474 1.03704303 21.56054689 1.02059011 24 1 C24 1.66 24 2.32 24 3 C16.08 3 8.16 3 0 3 C0 2.01 0 1.02 0 0 Z " fill="#41205C" transform="translate(405,580)"/>
<path d="M0 0 C0.66 0 1.32 0 2 0 C1.45207105 4.6182583 -0.58964488 7.98149647 -3.0625 11.8125 C-3.43955078 12.40998047 -3.81660156 13.00746094 -4.20507812 13.62304688 C-5.12989566 15.08636577 -6.06402065 16.54379523 -7 18 C-8 15 -8 15 -6.6015625 12.1875 C-5.94929687 11.135625 -5.29703125 10.08375 -4.625 9 C-1.9431688 4.67302206 -1.9431688 4.67302206 0 0 Z " fill="#12333B" transform="translate(648,559)"/>
<path d="M0 0 C0.99 0.66 1.98 1.32 3 2 C2.49210938 2.4125 1.98421875 2.825 1.4609375 3.25 C-3.47174514 7.38828057 -7.36104788 11.69319483 -11 17 C-11.33 16.34 -11.66 15.68 -12 15 C-9.62754709 9.85968536 -6.93206535 6.73491189 -2.48828125 3.26171875 C-0.86115804 2.04986163 -0.86115804 2.04986163 0 0 Z " fill="#202E44" transform="translate(572,488)"/>
<path d="M0 0 C-1.875 1.0625 -1.875 1.0625 -4 2 C-4.66 1.67 -5.32 1.34 -6 1 C-6 1.66 -6 2.32 -6 3 C-7.32 3 -8.64 3 -10 3 C-9.67 4.32 -9.34 5.64 -9 7 C-9.99 7.495 -9.99 7.495 -11 8 C-11.33 5.36 -11.66 2.72 -12 0 C-10.37585622 -0.19477739 -8.75063577 -0.38059458 -7.125 -0.5625 C-6.22007812 -0.66691406 -5.31515625 -0.77132813 -4.3828125 -0.87890625 C-2 -1 -2 -1 0 0 Z " fill="#482140" transform="translate(621,383)"/>
<path d="M0 0 C4.22703482 0.55598836 6.85684559 1.97502626 10.3125 4.4375 C11.19550781 5.05496094 12.07851563 5.67242187 12.98828125 6.30859375 C13.65214844 6.86675781 14.31601562 7.42492187 15 8 C15 8.66 15 9.32 15 10 C11.13518578 8.61423779 8.03192572 6.81080359 4.6875 4.4375 C3.80449219 3.81746094 2.92148437 3.19742187 2.01171875 2.55859375 C1.34785156 2.04425781 0.68398438 1.52992188 0 1 C0 0.67 0 0.34 0 0 Z " fill="#0D242F" transform="translate(529,311)"/>
<path d="M0 0 C0.66015625 1.76953125 0.66015625 1.76953125 1 4 C-0.49452201 6.80877094 -2.56998416 8.96157611 -5 11 C-8.375 11.9375 -8.375 11.9375 -11 12 C-8.83328568 9.72494996 -6.60436769 7.76424908 -4 6 C-3.34 6 -2.68 6 -2 6 C-1.855625 5.38125 -1.71125 4.7625 -1.5625 4.125 C-1 2 -1 2 0 0 Z " fill="#193A49" transform="translate(621,534)"/>
<path d="M0 0 C0 3 0 3 -1.6796875 5.04296875 C-2.76636719 6.10451172 -2.76636719 6.10451172 -3.875 7.1875 C-4.95394531 8.26064453 -4.95394531 8.26064453 -6.0546875 9.35546875 C-8 11 -8 11 -10 11 C-10 11.66 -10 12.32 -10 13 C-10.66 12.67 -11.32 12.34 -12 12 C-8.27653164 7.57905197 -4.70478962 3.42166518 0 0 Z " fill="#63E6E2" transform="translate(576,488)"/>
<path d="M0 0 C0.99 0.33 1.98 0.66 3 1 C-1.33333333 5.33333333 -5.66666667 9.66666667 -10 14 C-10.33 12.68 -10.66 11.36 -11 10 C-10.01 9.67 -9.02 9.34 -8 9 C-6.41441619 7.36497064 -6.41441619 7.36497064 -4.9375 5.4375 C-3.40234375 3.49609375 -3.40234375 3.49609375 -2 2 C-1.34 2 -0.68 2 0 2 C0 1.34 0 0.68 0 0 Z " fill="#321029" transform="translate(600,320)"/>
<path d="M0 0 C0.66 0.33 1.32 0.66 2 1 C1.3503125 1.5878125 1.3503125 1.5878125 0.6875 2.1875 C-1.12177457 3.99396625 -1.12177457 3.99396625 -2.4375 6.5 C-4.03796923 9.06075077 -5.49756426 10.36047314 -8 12 C-8.66 11.67 -9.32 11.34 -10 11 C-8.52116808 9.35386588 -7.04192523 7.70810092 -5.5625 6.0625 C-4.73878906 5.14597656 -3.91507812 4.22945313 -3.06640625 3.28515625 C-1 1 -1 1 0 0 Z " fill="#E465B6" transform="translate(489,399)"/>
<path d="M0 0 C0.66 0 1.32 0 2 0 C2 0.66 2 1.32 2 2 C3.32 2.33 4.64 2.66 6 3 C6 7.29 6 11.58 6 16 C5.67 16 5.34 16 5 16 C3.89771304 11.59085217 3.92345464 7.51617599 4 3 C2.35 2.67 0.7 2.34 -1 2 C-0.67 1.34 -0.34 0.68 0 0 Z " fill="#58468A" transform="translate(540,524)"/>
<path d="M0 0 C0.70511719 0.29648437 1.41023438 0.59296875 2.13671875 0.8984375 C5.00322261 2.0012398 7.84492532 2.83841394 10.8125 3.625 C11.78832031 3.88539063 12.76414062 4.14578125 13.76953125 4.4140625 C14.87361328 4.70410156 14.87361328 4.70410156 16 5 C14.35546875 6.10546875 14.35546875 6.10546875 12 7 C9.23828125 6.42578125 9.23828125 6.42578125 6.3125 5.3125 C5.33925781 4.95800781 4.36601562 4.60351562 3.36328125 4.23828125 C1 3 1 3 0 0 Z " fill="#061A20" transform="translate(340,692)"/>
<path d="M0 0 C1.32 0.33 2.64 0.66 4 1 C1.36 3.64 -1.28 6.28 -4 9 C-4.33 8.01 -4.66 7.02 -5 6 C-3.59554165 3.7363436 -1.8032087 1.9791315 0 0 Z " fill="#A261CC" transform="translate(386,479)"/>
<path d="M0 0 C0.66 0 1.32 0 2 0 C1.52389341 4.99911924 -0.03162219 7.97832683 -3 12 C-3.99 11.34 -4.98 10.68 -6 10 C-5.38125 9.835 -4.7625 9.67 -4.125 9.5 C-0.72243051 7.09818625 -0.77387974 3.99837866 0 0 Z M-8 11 C-6 12 -6 12 -6 12 Z " fill="#09262E" transform="translate(678,663)"/>
<path d="M0 0 C2.5625 1.25 2.5625 1.25 5 3 C5.33 3.99 5.66 4.98 6 6 C6.66 6 7.32 6 8 6 C8.33 6.99 8.66 7.98 9 9 C8.01 9.495 8.01 9.495 7 10 C4 7 1 4 -2 1 C-1.34 0.67 -0.68 0.34 0 0 Z " fill="#051B20" transform="translate(690,425)"/>
<path d="M0 0 C0.99 0.33 1.98 0.66 3 1 C-2.445 4.96 -2.445 4.96 -8 9 C-8.33 8.01 -8.66 7.02 -9 6 C-7.57140593 4.96674014 -6.13177617 3.94872366 -4.6875 2.9375 C-3.88699219 2.36902344 -3.08648437 1.80054688 -2.26171875 1.21484375 C-1.51535156 0.81394531 -0.76898438 0.41304688 0 0 Z " fill="#061F27" transform="translate(340,418)"/>
<path d="M0 0 C-1.38188453 3.21043882 -2.92421903 5.04936365 -5.625 7.25 C-6.57246094 8.03117187 -6.57246094 8.03117187 -7.5390625 8.828125 C-8.02117188 9.21484375 -8.50328125 9.6015625 -9 10 C-9 7 -9 7 -7.5390625 5.17578125 C-6.90742187 4.56089844 -6.27578125 3.94601562 -5.625 3.3125 C-4.68527344 2.37857422 -4.68527344 2.37857422 -3.7265625 1.42578125 C-2 0 -2 0 0 0 Z " fill="#4C1939" transform="translate(559,398)"/>
<path d="M0 0 C0.66 0 1.32 0 2 0 C0.49087042 4.98012761 -2.55661849 8.24259942 -6 12 C-6.33 11.34 -6.66 10.68 -7 10 C-5.88321917 8.3278148 -4.75633648 6.66237197 -3.625 5 C-2.99851562 4.071875 -2.37203125 3.14375 -1.7265625 2.1875 C-1.15679688 1.465625 -0.58703125 0.74375 0 0 Z " fill="#1C2E41" transform="translate(619,584)"/>
<path d="M0 0 C0.66 0 1.32 0 2 0 C0.59023295 3.03852705 -1.08870228 5.5939595 -3.125 8.25 C-3.66382813 8.95640625 -4.20265625 9.6628125 -4.7578125 10.390625 C-5.16773438 10.92171875 -5.57765625 11.4528125 -6 12 C-6.33 11.01 -6.66 10.02 -7 9 C-6.07421875 7.17578125 -6.07421875 7.17578125 -4.6875 5.3125 C-4.23761719 4.68988281 -3.78773438 4.06726563 -3.32421875 3.42578125 C-2.88722656 2.95527344 -2.45023438 2.48476563 -2 2 C-1.34 2 -0.68 2 0 2 C0 1.34 0 0.68 0 0 Z " fill="#5BE5DE" transform="translate(627,590)"/>
<path d="M0 0 C1.81883578 1.09369862 3.62990978 2.20031392 5.4375 3.3125 C6.44683594 3.92738281 7.45617187 4.54226563 8.49609375 5.17578125 C11 7 11 7 12 10 C9.00745382 8.59808647 6.4045389 6.96632511 3.75 5 C3.04359375 4.484375 2.3371875 3.96875 1.609375 3.4375 C0.81273437 2.7259375 0.81273437 2.7259375 0 2 C0 1.34 0 0.68 0 0 Z " fill="#132A38" transform="translate(643,416)"/>
<path d="M0 0 C0.99 0.66 1.98 1.32 3 2 C2.125 5.875 2.125 5.875 1 7 C-0.66617115 7.04063832 -2.33388095 7.042721 -4 7 C-3.525625 6.21625 -3.05125 5.4325 -2.5625 4.625 C-1.66101977 3.11051322 -0.78820515 1.5764103 0 0 Z " fill="#5A2346" transform="translate(615,366)"/>
<path d="M0 0 C0.66 0.33 1.32 0.66 2 1 C-0.64 3.64 -3.28 6.28 -6 9 C-6.99 8.67 -7.98 8.34 -9 8 C-6.03 5.36 -3.06 2.72 0 0 Z " fill="#E55DB4" transform="translate(573,386)"/>
<path d="M0 0 C6.52307692 0.61538462 6.52307692 0.61538462 8.9375 2.5625 C9.288125 3.036875 9.63875 3.51125 10 4 C9.67 4.66 9.34 5.32 9 6 C7.68397477 5.38245741 6.37226444 4.75571258 5.0625 4.125 C4.33160156 3.77695312 3.60070312 3.42890625 2.84765625 3.0703125 C1 2 1 2 0 0 Z " fill="#55C8FA" transform="translate(643,350)"/>
<path d="M0 0 C0.99 0.33 1.98 0.66 3 1 C-2.445 4.96 -2.445 4.96 -8 9 C-8 8.01 -8 7.02 -8 6 C-6.35546875 4.359375 -6.35546875 4.359375 -4.1875 2.75 C-3.47980469 2.20859375 -2.77210938 1.6671875 -2.04296875 1.109375 C-1.36878906 0.74328125 -0.69460938 0.3771875 0 0 Z " fill="#082A36" transform="translate(445,342)"/>
<path d="M0 0 C1.32 0 2.64 0 4 0 C4 0.66 4 1.32 4 2 C5.32 1.67 6.64 1.34 8 1 C8 1.66 8 2.32 8 3 C9.32 2.67 10.64 2.34 12 2 C12.33 2.66 12.66 3.32 13 4 C11.20793453 3.85915204 9.41635083 3.71216299 7.625 3.5625 C6.62726562 3.48128906 5.62953125 3.40007813 4.6015625 3.31640625 C2 3 2 3 0 2 C0 1.34 0 0.68 0 0 Z " fill="#48336F" transform="translate(526,521)"/>
<path d="M0 0 C-3.3 2.31 -6.6 4.62 -10 7 C-10 6.01 -10 5.02 -10 4 C-8.57421875 2.578125 -8.57421875 2.578125 -6.6875 1.25 C-6.07261719 0.80140625 -5.45773437 0.3528125 -4.82421875 -0.109375 C-3 -1 -3 -1 0 0 Z " fill="#072831" transform="translate(364,404)"/>
<path d="M0 0 C8.57142857 0.85714286 8.57142857 0.85714286 12 3 C11.67 3.99 11.34 4.98 11 6 C9.72791378 5.37755401 8.45738118 4.75193233 7.1875 4.125 C6.47980469 3.77695312 5.77210938 3.42890625 5.04296875 3.0703125 C3 2 3 2 0 0 Z " fill="#0A3039" transform="translate(517,305)"/>
<path d="M0 0 C0.33 0.99 0.66 1.98 1 3 C-1.97 5.475 -1.97 5.475 -5 8 C-5.99 7.34 -6.98 6.68 -8 6 C-5.36 4.02 -2.72 2.04 0 0 Z " fill="#061B23" transform="translate(687,686)"/>
<path d="M0 0 C2.4375 1.0625 2.4375 1.0625 5 3 C5.8125 6.6875 5.8125 6.6875 6 10 C5.401875 9.21625 4.80375 8.4325 4.1875 7.625 C2.08914751 4.85425677 2.08914751 4.85425677 -1 3 C-0.67 2.01 -0.34 1.02 0 0 Z " fill="#1D192D" transform="translate(558,329)"/>
<path d="M0 0 C4.43458973 1.3937282 6.87378374 3.60582235 10 7 C6.00118212 6.38479725 3.19641774 4.39731331 0 2 C0 1.34 0 0.68 0 0 Z " fill="#0C262F" transform="translate(670,436)"/>
<path d="M0 0 C0.99 0.33 1.98 0.66 3 1 C1.02 2.98 -0.96 4.96 -3 7 C-3.99 6.67 -4.98 6.34 -6 6 C-4.02 4.02 -2.04 2.04 0 0 Z " fill="#DC5CAE" transform="translate(535,386)"/>
<path d="M0 0 C0.66 0.33 1.32 0.66 2 1 C-0.97 3.97 -3.94 6.94 -7 10 C-7 6.04435836 -5.59478606 4.89133304 -3 2 C-2.01 1.34 -1.02 0.68 0 0 Z " fill="#432043" transform="translate(563,357)"/>
<path d="M0 0 C1.9375 0.625 1.9375 0.625 4 2 C4.75 5.125 4.75 5.125 5 8 C4.01 8.66 3.02 9.32 2 10 C1.77213542 7.98177083 1.54427083 5.96354167 1.31640625 3.9453125 C1.08707039 1.92595684 1.08707039 1.92595684 0 0 Z " fill="#632D86" transform="translate(450,560)"/>
<path d="M0 0 C5.53846154 0.61538462 5.53846154 0.61538462 7.875 2.5625 C8.431875 3.2740625 8.431875 3.2740625 9 4 C8.01 4.495 8.01 4.495 7 5 C4.64018187 4.06421005 2.30368736 3.06652192 0 2 C0 1.34 0 0.68 0 0 Z " fill="#17464E" transform="translate(620,479)"/>
<path d="M0 0 C0.66 0.33 1.32 0.66 2 1 C-0.25 3.5625 -0.25 3.5625 -3 6 C-4.32 5.67 -5.64 5.34 -7 5 C-4.69 3.35 -2.38 1.7 0 0 Z " fill="#092C38" transform="translate(356,430)"/>
<path d="M0 0 C1.13643966 3.40931897 0.86747764 4.00335456 -0.4375 7.1875 C-0.86869141 8.26064453 -0.86869141 8.26064453 -1.30859375 9.35546875 C-1.53675781 9.89816406 -1.76492188 10.44085938 -2 11 C-2.33 11 -2.66 11 -3 11 C-3.08096803 9.54257537 -3.13917774 8.08387193 -3.1875 6.625 C-3.22230469 5.81289063 -3.25710938 5.00078125 -3.29296875 4.1640625 C-3.19628906 3.44992187 -3.09960938 2.73578125 -3 2 C-2.01 1.34 -1.02 0.68 0 0 Z " fill="#341426" transform="translate(487,419)"/>
<path d="M0 0 C-1.45255699 3.82946843 -3.42895561 5.12050295 -7 7 C-7.66 6.34 -8.32 5.68 -9 5 C-7.87926138 4.16094435 -6.75325453 3.32892169 -5.625 2.5 C-4.99851562 2.0359375 -4.37203125 1.571875 -3.7265625 1.09375 C-2 0 -2 0 0 0 Z " fill="#092933" transform="translate(379,415)"/>
<path d="M0 0 C0.66 0.99 1.32 1.98 2 3 C0.98819642 6.77126791 0.32378142 7.78414572 -3 10 C-2.39009109 6.44219804 -1.4216319 3.3171411 0 0 Z " fill="#282442" transform="translate(562,336)"/>
<path d="M0 0 C0.33 0.99 0.66 1.98 1 3 C0.00390625 4.82421875 0.00390625 4.82421875 -1.4375 6.6875 C-1.91058594 7.31011719 -2.38367188 7.93273437 -2.87109375 8.57421875 C-3.24363281 9.04472656 -3.61617187 9.51523437 -4 10 C-4.33 9.34 -4.66 8.68 -5 8 C-4.00390625 6.0546875 -4.00390625 6.0546875 -2.5625 3.875 C-2.08941406 3.15054688 -1.61632812 2.42609375 -1.12890625 1.6796875 C-0.75636719 1.12539063 -0.38382813 0.57109375 0 0 Z " fill="#183643" transform="translate(636,559)"/>
<path d="M0 0 C3.99996286 1.33332095 4.83782337 3.4957827 7 7 C4.20171644 6.61402985 3.1794116 6.19863427 1.25 4.0625 C0 2 0 2 0 0 Z " fill="#1E3C4E" transform="translate(591,537)"/>
<path d="M0 0 C0.33 0.99 0.66 1.98 1 3 C-1.8125 5.0625 -1.8125 5.0625 -5 7 C-5.99 6.67 -6.98 6.34 -8 6 C-5.36 4.02 -2.72 2.04 0 0 Z " fill="#082A36" transform="translate(369,421)"/>
<path d="M0 0 C0.99 0 1.98 0 3 0 C1.60667426 3.36720387 0.0210714 4.9859524 -3 7 C-3.33 6.01 -3.66 5.02 -4 4 C-2.68 3.67 -1.36 3.34 0 3 C0 2.01 0 1.02 0 0 Z " fill="#DC65B2" transform="translate(566,366)"/>
<path d="M0 0 C0.99 0.33 1.98 0.66 3 1 C1.90554162 1.86657116 0.79902219 2.71792724 -0.3125 3.5625 C-0.92738281 4.03816406 -1.54226563 4.51382812 -2.17578125 5.00390625 C-2.77777344 5.33261719 -3.37976563 5.66132813 -4 6 C-4.99 5.67 -5.98 5.34 -7 5 C-5.90554162 4.13342884 -4.79902219 3.28207276 -3.6875 2.4375 C-3.07261719 1.96183594 -2.45773437 1.48617188 -1.82421875 0.99609375 C-1.22222656 0.66738281 -0.62023437 0.33867187 0 0 Z " fill="#0B2834" transform="translate(473,346)"/>
<path d="M0 0 C0.33 1.32 0.66 2.64 1 4 C-0.9375 6.25 -0.9375 6.25 -3 8 C-3.66 7.67 -4.32 7.34 -5 7 C-3.35 4.69 -1.7 2.38 0 0 Z " fill="#5FE1DC" transform="translate(617,590)"/>
<path d="M0 0 C4.29 0.66 8.58 1.32 13 2 C13 2.33 13 2.66 13 3 C8.71 3 4.42 3 0 3 C0 2.01 0 1.02 0 0 Z " fill="#472465" transform="translate(405,580)"/>
<path d="M0 0 C1 3 1 3 -0.4375 6.1875 C-1.2109375 7.5796875 -1.2109375 7.5796875 -2 9 C-2.66 9 -3.32 9 -4 9 C-2.25 2.25 -2.25 2.25 0 0 Z " fill="#153542" transform="translate(641,549)"/>
<path d="M0 0 C0.33 0.99 0.66 1.98 1 3 C-0.40445835 5.2636564 -2.1967913 7.0208685 -4 9 C-4.33 8.01 -4.66 7.02 -5 6 C-3.59554165 3.7363436 -1.8032087 1.9791315 0 0 Z " fill="#1B1633" transform="translate(384,478)"/>
<path d="M0 0 C0.99 0.33 1.98 0.66 3 1 C2.34 3.31 1.68 5.62 1 8 C-0.42944945 5.64561267 -1.08661261 4.51967567 -0.625 1.75 C-0.41875 1.1725 -0.2125 0.595 0 0 Z " fill="#431A31" transform="translate(556,415)"/>
<path d="M0 0 C0.33 0.99 0.66 1.98 1 3 C-0.32 4.32 -1.64 5.64 -3 7 C-3.66 6.34 -4.32 5.68 -5 5 C-3.35 3.35 -1.7 1.7 0 0 Z " fill="#EB72C4" transform="translate(624,375)"/>
</svg>
